<svg width="40" height="40" viewBox="0 0 40 40" fill="none" xmlns="http://www.w3.org/2000/svg">
<path d="M14.2929 30.2929C13.9024 30.6834 13.9024 31.3166 14.2929 31.7071C14.6834 32.0976 15.3166 32.0976 15.7071 31.7071L14.2929 30.2929ZM26 20L26.7071 20.7071C27.0976 20.3166 27.0976 19.6834 26.7071 19.2929L26 20ZM15.7071 8.29289C15.3166 7.90237 14.6834 7.90237 14.2929 8.29289C13.9024 8.68342 13.9024 9.31658 14.2929 9.70711L15.7071 8.29289ZM15.7071 31.7071L26.7071 20.7071L25.2929 19.2929L14.2929 30.2929L15.7071 31.7071ZM26.7071 19.2929L15.7071 8.29289L14.2929 9.70711L25.2929 20.7071L26.7071 19.2929Z" fill="#090102"/>
<path d="M15.7071 13.7071L21.2929 19.2929C21.6834 19.6834 21.6834 20.3166 21.2929 20.7071L15.7071 26.2929C15.0771 26.9229 14 26.4767 14 25.5858V14.4142C14 13.5233 15.0771 13.0771 15.7071 13.7071Z" fill="#090102"/>
</svg>
