<svg width="40" height="40" viewBox="0 0 40 40" fill="none" xmlns="http://www.w3.org/2000/svg">
<path d="M25.7071 9.70711C26.0976 9.31658 26.0976 8.68342 25.7071 8.29289C25.3166 7.90237 24.6834 7.90237 24.2929 8.29289L25.7071 9.70711ZM14 20L13.2929 19.2929C12.9024 19.6834 12.9024 20.3166 13.2929 20.7071L14 20ZM24.2929 31.7071C24.6834 32.0976 25.3166 32.0976 25.7071 31.7071C26.0976 31.3166 26.0976 30.6834 25.7071 30.2929L24.2929 31.7071ZM24.2929 8.29289L13.2929 19.2929L14.7071 20.7071L25.7071 9.70711L24.2929 8.29289ZM13.2929 20.7071L24.2929 31.7071L25.7071 30.2929L14.7071 19.2929L13.2929 20.7071Z" fill="#090102"/>
<path d="M24.2929 26.2929L18.7071 20.7071C18.3166 20.3166 18.3166 19.6834 18.7071 19.2929L24.2929 13.7071C24.9229 13.0771 26 13.5233 26 14.4142V25.5858C26 26.4767 24.9229 26.9229 24.2929 26.2929Z" fill="#090102"/>
</svg>
