<svg width="20" height="18" viewBox="0 0 20 18" fill="none" xmlns="http://www.w3.org/2000/svg">
<path d="M18.3845 1.67109C17.3373 0.598987 15.9508 0.0130215 14.4711 0.0130215C12.9913 0.0130215 11.6006 0.603328 10.5533 1.67543L10.0064 2.23535L9.45092 1.66675C8.40365 0.594647 7.0087 0 5.52895 0C4.05344 0 2.66273 0.590306 1.61969 1.65807C0.57242 2.73017 -0.00421676 4.15385 2.32169e-05 5.66868C2.32169e-05 7.18351 0.5809 8.60285 1.62817 9.67495L9.59084 17.8264C9.70108 17.9392 9.84948 18 9.99364 18C10.1378 18 10.2862 17.9436 10.3964 17.8307L18.3761 9.69231C19.4233 8.62021 20 7.19653 20 5.6817C20.0042 4.16687 19.4318 2.74319 18.3845 1.67109ZM17.5705 8.86328L9.99364 16.5893L2.43377 8.85025C1.60273 7.99952 1.14482 6.87099 1.14482 5.66868C1.14482 4.46636 1.59849 3.33783 2.42953 2.49144C3.25632 1.64504 4.35872 1.17627 5.52895 1.17627C6.70342 1.17627 7.81005 1.64504 8.64109 2.49578L9.59932 3.47673C9.82404 3.70678 10.1844 3.70678 10.4092 3.47673L11.3589 2.50446C12.1899 1.65373 13.2966 1.18495 14.4668 1.18495C15.637 1.18495 16.7394 1.65373 17.5705 2.50012C18.4015 3.35086 18.8552 4.47938 18.8552 5.6817C18.8594 6.88401 18.4015 8.01254 17.5705 8.86328Z" fill="#DF9793"/>
</svg>
