<svg width="44" height="44" viewBox="0 0 44 44" fill="none" xmlns="http://www.w3.org/2000/svg">
<path d="M27 21.5V19C27 18.9295 27.0072 18.8835 27.0145 18.8555C27.0213 18.8291 27.0279 18.8198 27.0283 18.8191L27.0283 18.8191L27.0289 18.8184C27.029 18.8183 27.0302 18.8172 27.0331 18.8152C27.0394 18.8111 27.0552 18.8021 27.0873 18.7922C27.1577 18.7704 27.2654 18.7557 27.432 18.7505C27.5438 18.747 27.6572 18.7479 27.786 18.7489C27.8526 18.7494 27.9233 18.75 28 18.75H29.5H30V18.25V14.5V14H29.5H26.5C23.7379 14 21.5 16.2379 21.5 19V21.5H19H18.5V22V25.75V26.25H19H21.5V33.5H13C11.6213 33.5 10.5 32.378 10.5 31V13C10.5 11.6211 11.6211 10.5 13 10.5H31C32.378 10.5 33.5 11.6213 33.5 13V31C33.5 32.3779 32.3779 33.5 31 33.5H27V26.25H28.75H29.0885L29.2142 25.9357L30.7142 22.1857L30.9885 21.5H30.25H27Z" fill="white" stroke="white"/>
</svg>
