<svg width="16" height="16" viewBox="0 0 16 16" fill="none" xmlns="http://www.w3.org/2000/svg">
<rect width="16" height="16" fill="#090102"/>
<path d="M12.3866 9.81771C12.3866 9.28065 12.2439 8.77976 11.9987 8.35987C12.1053 8.27452 12.2052 8.17972 12.2975 8.07666C12.7314 7.59188 13 6.92176 13 6.18187C13 5.44442 12.7314 4.77546 12.2975 4.29047V4.28708C11.8637 3.8023 11.2638 3.5 10.6015 3.5H10.5926H3L3.71117 5.2226H9.52566H10.6005C10.8369 5.2226 11.0521 5.33245 11.207 5.50538L11.2084 5.50379C11.3623 5.67663 11.4578 5.91636 11.4578 6.18187C11.4578 6.44599 11.3619 6.68531 11.207 6.85835C11.0521 7.03129 10.8377 7.1386 10.6013 7.1386H7.21541L6.73392 8.8614H10.0025C10.2332 8.86565 10.4418 8.972 10.5935 9.14133L10.595 9.13974C10.7489 9.31278 10.8444 9.55231 10.8444 9.81771C10.8444 10.0819 10.7483 10.3214 10.5935 10.4942C10.4387 10.6672 10.2231 10.7774 9.98665 10.7774H5.04013L6.3314 6.1806H4.78937L3.01424 12.5H4.55627H9.70751H9.98124H9.98608C10.6484 12.5 11.2501 12.1974 11.684 11.7125C12.1179 11.2278 12.3866 10.5577 12.3866 9.81771Z" fill="white"/>
</svg>
