<svg width="44" height="44" viewBox="0 0 44 44" fill="none" xmlns="http://www.w3.org/2000/svg">
<rect width="44" height="44" fill="#343232"/>
<path d="M30.0995 26.4765L29.5995 26.4646V26.4765H30.0995ZM30.0995 29.1862H29.5995L29.5995 29.1881L30.0995 29.1862ZM28.9308 30.9048L28.7634 30.4336L28.9308 30.9048ZM28.2251 30.9927L28.1684 31.4895L28.1779 31.4904L28.2251 30.9927ZM20.8052 28.2197L21.0867 27.8065L21.0828 27.8039L20.8052 28.2197ZM15.6465 22.8003L16.0744 22.5415L16.0721 22.5378L15.6465 22.8003ZM13.007 14.9692L12.5088 15.012L12.5095 15.0194L13.007 14.9692ZM14.7179 13.0001V12.5001L14.7175 12.5001L14.7179 13.0001ZM17.2973 13.0001V13.5001L17.3025 13.5001L17.2973 13.0001ZM19.0169 14.5537L19.513 14.4914L19.5124 14.487L19.0169 14.5537ZM19.6187 17.0918L19.1476 17.2591L19.1479 17.2602L19.6187 17.0918ZM19.2318 18.9976L19.594 19.3424L19.5959 19.3403L19.2318 18.9976ZM18.1399 20.1447L17.7777 19.8C17.6284 19.9569 17.597 20.1922 17.7002 20.3827L18.1399 20.1447ZM23.2986 25.5642L23.0422 25.9934C23.2428 26.1133 23.4996 26.0782 23.6607 25.9089L23.2986 25.5642ZM24.3905 24.4171L24.0303 24.0703L24.0284 24.0723L24.3905 24.4171ZM26.2047 24.0106L26.021 24.4757L26.0222 24.4761L26.2047 24.0106ZM28.6206 24.6429L28.6939 24.1483L28.6893 24.1476L28.6206 24.6429ZM29.5995 26.4765V29.1862H30.5995V26.4765H29.5995ZM29.5995 29.1881C29.6002 29.3736 29.564 29.5566 29.4939 29.7251L30.4171 30.1093C30.5388 29.8169 30.6007 29.5019 30.5995 29.1843L29.5995 29.1881ZM29.4939 29.7251C29.4237 29.8936 29.3216 30.043 29.1954 30.1647L29.8894 30.8847C30.1161 30.6662 30.2953 30.4018 30.4171 30.1093L29.4939 29.7251ZM29.1954 30.1647C29.0693 30.2862 28.9219 30.3773 28.7634 30.4336L29.0982 31.3759C29.3934 31.2711 29.6626 31.1032 29.8894 30.8847L29.1954 30.1647ZM28.7634 30.4336C28.605 30.4899 28.4379 30.5106 28.2724 30.4949L28.1779 31.4904C28.4894 31.52 28.803 31.4808 29.0982 31.3759L28.7634 30.4336ZM28.2818 30.4959C25.718 30.2032 23.2536 29.2827 21.0867 27.8065L20.5237 28.6329C22.8226 30.1991 25.4409 31.1781 28.1684 31.4894L28.2818 30.4959ZM21.0828 27.8039C19.0677 26.4587 17.3573 24.6625 16.0743 22.5415L15.2187 23.059C16.5759 25.3028 18.3879 27.2072 20.5276 28.6356L21.0828 27.8039ZM16.0721 22.5378C14.6593 20.2467 13.7792 17.6366 13.5044 14.9189L12.5095 15.0194C12.7992 17.8855 13.7276 20.6411 15.2209 23.0627L16.0721 22.5378ZM13.5051 14.9263C13.4893 14.7422 13.5102 14.5569 13.5661 14.3826L12.6138 14.0773C12.5173 14.3783 12.4817 14.6965 12.5088 15.012L13.5051 14.9263ZM13.5661 14.3826C13.622 14.2083 13.7113 14.0498 13.827 13.9166L13.0721 13.2607C12.866 13.498 12.7103 13.7763 12.6138 14.0773L13.5661 14.3826ZM13.827 13.9166C13.9427 13.7835 14.082 13.6788 14.2352 13.6077L13.8143 12.7006C13.5308 12.8321 13.2784 13.0234 13.0721 13.2607L13.827 13.9166ZM14.2352 13.6077C14.3884 13.5366 14.5529 13.5003 14.7184 13.5001L14.7175 12.5001C14.4056 12.5004 14.0979 12.569 13.8143 12.7006L14.2352 13.6077ZM14.7179 13.5001H17.2973V12.5001H14.7179V13.5001ZM17.3025 13.5001C17.5911 13.4971 17.8749 13.6042 18.1003 13.8078L18.7706 13.0658C18.3633 12.6978 17.838 12.4945 17.2921 12.5001L17.3025 13.5001ZM18.1003 13.8078C18.3263 14.0121 18.4782 14.3 18.5213 14.6203L19.5124 14.487C19.4387 13.9392 19.1773 13.4333 18.7706 13.0658L18.1003 13.8078ZM18.5208 14.6159C18.6341 15.5188 18.8443 16.4055 19.1476 17.2591L20.0899 16.9244C19.8109 16.1391 19.6174 15.3229 19.513 14.4914L18.5208 14.6159ZM19.1479 17.2602C19.2328 17.4973 19.2513 17.756 19.2008 18.0047L20.1809 18.2037C20.2675 17.7769 20.236 17.3328 20.0895 16.9233L19.1479 17.2602ZM19.2008 18.0047C19.1504 18.2534 19.0336 18.4787 18.8677 18.6549L19.5959 19.3403C19.8923 19.0254 20.0942 18.6306 20.1809 18.2037L19.2008 18.0047ZM18.8697 18.6529L17.7777 19.8L18.502 20.4895L19.594 19.3423L18.8697 18.6529ZM17.7002 20.3827C18.9658 22.721 20.8104 24.6603 23.0422 25.9934L23.555 25.1349C21.4817 23.8964 19.7619 22.0911 18.5796 19.9067L17.7002 20.3827ZM23.6607 25.9089L24.7527 24.7618L24.0284 24.0723L22.9364 25.2194L23.6607 25.9089ZM24.7507 24.7638C24.9182 24.5899 25.1267 24.4728 25.3503 24.4227L25.1316 23.4469C24.7121 23.5409 24.3304 23.7586 24.0303 24.0703L24.7507 24.7638ZM25.3503 24.4227C25.5736 24.3727 25.806 24.3908 26.021 24.4757L26.3883 23.5456C25.9878 23.3874 25.5513 23.3529 25.1316 23.4469L25.3503 24.4227ZM26.0222 24.4761C26.8387 24.7962 27.6874 25.0183 28.552 25.1381L28.6893 24.1476C27.903 24.0387 27.1307 23.8366 26.3871 23.5451L26.0222 24.4761ZM28.5473 25.1375C28.8369 25.1804 29.1069 25.3343 29.3032 25.5777L30.0816 24.95C29.7326 24.5172 29.2397 24.2292 28.6939 24.1483L28.5473 25.1375ZM29.3032 25.5777C29.5 25.8217 29.6073 26.1373 29.5996 26.4647L30.5993 26.4883C30.6125 25.9297 30.4301 25.3821 30.0816 24.95L29.3032 25.5777Z" fill="white"/>
<path fill-rule="evenodd" clip-rule="evenodd" d="M25.3777 14.5603C24.5956 14.2193 23.7663 14.0178 22.9235 13.9628C22.6625 13.9458 22.4502 13.7353 22.4502 13.4737C22.4502 13.2121 22.6625 12.9986 22.9236 13.0138C23.8846 13.0699 24.8309 13.2965 25.7221 13.6851C26.7595 14.1374 27.702 14.8003 28.496 15.636C29.2899 16.4718 29.9197 17.4639 30.3494 18.5558C30.7244 19.509 30.9406 20.522 30.9895 21.5502C31.0013 21.7984 30.7987 22 30.5502 22C30.3017 22 30.1014 21.7984 30.0883 21.5502C30.0402 20.6465 29.8477 19.7566 29.5179 18.9184C29.1334 17.9414 28.5699 17.0537 27.8596 16.3059C27.1492 15.5582 26.3059 14.965 25.3777 14.5603Z" fill="white"/>
<path fill-rule="evenodd" clip-rule="evenodd" d="M24.3445 17.186C23.8901 16.9879 23.411 16.8625 22.9231 16.8132C22.6628 16.7869 22.4502 16.5773 22.4502 16.3157C22.4502 16.0541 22.6627 15.8399 22.9233 15.8622C23.5295 15.914 24.1253 16.065 24.6889 16.3108C25.3986 16.6202 26.0435 17.0738 26.5868 17.6456C27.13 18.2175 27.5609 18.8963 27.8549 19.6434C28.0943 20.2517 28.239 20.8956 28.2846 21.5503C28.3018 21.7982 28.0987 21.9999 27.8502 21.9999C27.6017 21.9999 27.4021 21.7981 27.3817 21.5504C27.3381 21.0202 27.2175 20.4993 27.0234 20.006C26.7746 19.3738 26.41 18.7994 25.9504 18.3155C25.4907 17.8317 24.945 17.4479 24.3445 17.186Z" fill="white"/>
</svg>
