<svg width="44" height="44" viewBox="0 0 44 44" fill="none" xmlns="http://www.w3.org/2000/svg">
<path d="M22.8335 16.1666H29.5002" stroke="white" stroke-linecap="round" stroke-linejoin="round"/>
<path d="M22.8335 19.5H27.0002" stroke="white" stroke-linecap="round" stroke-linejoin="round"/>
<path d="M22.8335 24.5H29.5002" stroke="white" stroke-linecap="round" stroke-linejoin="round"/>
<path d="M22.8335 27.8334H27.0002" stroke="white" stroke-linecap="round" stroke-linejoin="round"/>
<path d="M18.6667 15.3334H15.3333C14.8731 15.3334 14.5 15.7065 14.5 16.1667V19.5C14.5 19.9603 14.8731 20.3334 15.3333 20.3334H18.6667C19.1269 20.3334 19.5 19.9603 19.5 19.5V16.1667C19.5 15.7065 19.1269 15.3334 18.6667 15.3334Z" stroke="white" stroke-linecap="round" stroke-linejoin="round"/>
<path d="M18.6667 23.6666H15.3333C14.8731 23.6666 14.5 24.0397 14.5 24.5V27.8333C14.5 28.2935 14.8731 28.6666 15.3333 28.6666H18.6667C19.1269 28.6666 19.5 28.2935 19.5 27.8333V24.5C19.5 24.0397 19.1269 23.6666 18.6667 23.6666Z" stroke="white" stroke-linecap="round" stroke-linejoin="round"/>
</svg>
