<svg width="22" height="21" viewBox="0 0 22 21" fill="none" xmlns="http://www.w3.org/2000/svg">
<path d="M9.5 19C9.5 19.8284 8.82843 20.5 8 20.5C7.17157 20.5 6.5 19.8284 6.5 19C6.5 18.1716 7.17157 17.5 8 17.5C8.82843 17.5 9.5 18.1716 9.5 19Z" stroke="white" stroke-linecap="round" stroke-linejoin="round"/>
<path d="M20.5 19C20.5 19.8284 19.8284 20.5 19 20.5C18.1716 20.5 17.5 19.8284 17.5 19C17.5 18.1716 18.1716 17.5 19 17.5C19.8284 17.5 20.5 18.1716 20.5 19Z" stroke="white" stroke-linecap="round" stroke-linejoin="round"/>
<path d="M1 1H4.3748L6.9059 15.7815H20.4051" stroke="white" stroke-linecap="round" stroke-linejoin="round"/>
<mask id="path-4-inside-1_1162_21668" fill="white">
<path d="M6.00024 12.4067H20.0594C20.157 12.4068 20.2516 12.373 20.327 12.3112C20.4025 12.2494 20.4542 12.1633 20.4734 12.0677L21.992 4.47437C22.0043 4.41314 22.0028 4.34995 21.9877 4.28937C21.9725 4.22878 21.9442 4.17232 21.9046 4.12404C21.865 4.07576 21.8151 4.03687 21.7587 4.01019C21.7022 3.9835 21.6405 3.96968 21.5781 3.96973H5.21875"/>
</mask>
<path d="M6.00024 11.4067C5.44796 11.4067 5.00024 11.8544 5.00024 12.4067C5.00024 12.959 5.44796 13.4067 6.00024 13.4067V11.4067ZM20.0594 12.4067L20.0601 11.4067H20.0594V12.4067ZM20.4734 12.0677L21.4539 12.2639L21.454 12.2638L20.4734 12.0677ZM21.992 4.47437L21.0115 4.27812L21.0115 4.27825L21.992 4.47437ZM21.5781 3.96973V4.96973L21.5788 4.96973L21.5781 3.96973ZM5.21875 2.96973C4.66647 2.96973 4.21875 3.41744 4.21875 3.96973C4.21875 4.52201 4.66647 4.96973 5.21875 4.96973V2.96973ZM6.00024 13.4067H20.0594V11.4067H6.00024V13.4067ZM20.0587 13.4067C20.3876 13.407 20.7063 13.2932 20.9607 13.0848L19.6934 11.5376C19.7968 11.4529 19.9264 11.4066 20.0601 11.4067L20.0587 13.4067ZM20.9607 13.0848C21.2151 12.8765 21.3894 12.5864 21.4539 12.2639L19.4928 11.8714C19.5191 11.7403 19.5899 11.6223 19.6934 11.5376L20.9607 13.0848ZM21.454 12.2638L22.9726 4.67048L21.0115 4.27825L19.4928 11.8716L21.454 12.2638ZM22.9726 4.67062C23.0139 4.46424 23.0089 4.25127 22.9579 4.04708L21.0175 4.53166C20.9967 4.44863 20.9947 4.36203 21.0115 4.27812L22.9726 4.67062ZM22.9579 4.04708C22.9069 3.84287 22.8112 3.65255 22.6777 3.48983L21.1314 4.75824C21.0771 4.69208 21.0382 4.6147 21.0175 4.53166L22.9579 4.04708ZM22.6777 3.48983C22.5442 3.32711 22.3763 3.19605 22.186 3.1061L21.3313 4.91427C21.2539 4.8777 21.1857 4.8244 21.1314 4.75824L22.6777 3.48983ZM22.186 3.1061C21.9957 3.01616 21.7879 2.96958 21.5774 2.96973L21.5788 4.96973C21.4932 4.96979 21.4087 4.95085 21.3313 4.91427L22.186 3.1061ZM21.5781 2.96973H5.21875V4.96973H21.5781V2.96973Z" fill="white" mask="url(#path-4-inside-1_1162_21668)"/>
</svg>
