<svg width="44" height="44" viewBox="0 0 44 44" fill="none" xmlns="http://www.w3.org/2000/svg">
<path d="M28.875 21.5H26.25V19.5C26.25 19.4542 26.254 19.4252 26.2575 19.4085C26.2595 19.4078 26.2617 19.4071 26.264 19.4064C26.3119 19.3916 26.3926 19.3797 26.5293 19.3754C26.6208 19.3725 26.7128 19.3732 26.8189 19.3741C26.8747 19.3745 26.9344 19.375 27 19.375H28.25H28.75V18.875V15.75V15.25H28.25H25.75C23.4022 15.25 21.5 17.1522 21.5 19.5V21.5H19.5H19V22V25.125V25.625H19.5H21.5V31.5H14.5C13.3971 31.5 12.5 30.6023 12.5 29.5V14.5C12.5 13.397 13.397 12.5 14.5 12.5H29.5C30.6023 12.5 31.5 13.3971 31.5 14.5V29.5C31.5 30.6022 30.6022 31.5 29.5 31.5H26.25V25.625H27.625H27.9635L28.0892 25.3107L29.3392 22.1857L29.6135 21.5H28.875ZM26.263 19.3895C26.2631 19.3895 26.2629 19.3899 26.2626 19.3905L26.263 19.3895Z" stroke="white"/>
</svg>
