<svg width="44" height="44" viewBox="0 0 44 44" fill="none" xmlns="http://www.w3.org/2000/svg">
<rect width="44" height="44" fill="#1A1919"/>
<path d="M31.8779 31.2887L25.7925 25.2033C27.0565 23.7999 27.8334 21.9496 27.8334 19.9166C27.8333 15.5514 24.2819 12 19.9167 12C15.5514 12 12 15.5514 12 19.9167C12 24.2819 15.5514 27.8334 19.9167 27.8334C21.9496 27.8334 23.7999 27.0565 25.2034 25.7925L31.2887 31.8779C31.3701 31.9593 31.4768 32 31.5834 32C31.69 32 31.7966 31.9593 31.878 31.8779C32.0407 31.7152 32.0407 31.4515 31.8779 31.2887ZM19.9167 27C16.0113 27 12.8334 23.8225 12.8334 19.9167C12.8334 16.0109 16.0113 12.8333 19.9167 12.8333C23.8221 12.8333 27 16.0108 27 19.9167C27 23.8225 23.8221 27 19.9167 27Z" fill="white"/>
</svg>
