<svg width="19" height="20" viewBox="0 0 19 20" fill="none" xmlns="http://www.w3.org/2000/svg">
<path d="M18.0995 14.4765L17.5995 14.4646V14.4765H18.0995ZM18.0995 17.1862H17.5995L17.5995 17.1881L18.0995 17.1862ZM16.9308 18.9048L16.7634 18.4336L16.9308 18.9048ZM16.2251 18.9927L16.1684 19.4895L16.1779 19.4904L16.2251 18.9927ZM8.80521 16.2197L9.08674 15.8065L9.08282 15.8039L8.80521 16.2197ZM3.64651 10.8003L4.07435 10.5415L4.0721 10.5378L3.64651 10.8003ZM1.00698 2.96916L0.508763 3.01201L0.509514 3.01944L1.00698 2.96916ZM2.71795 1.00009V0.500087L2.71745 0.500088L2.71795 1.00009ZM5.2973 1.00009V1.50011L5.30247 1.50006L5.2973 1.00009ZM7.01686 2.55366L7.51299 2.49138L7.5124 2.48699L7.01686 2.55366ZM7.61871 5.09177L7.14755 5.25913L7.14794 5.26022L7.61871 5.09177ZM7.23181 6.99761L7.59397 7.34235L7.59589 7.34032L7.23181 6.99761ZM6.13988 8.14473L5.77773 7.8C5.62835 7.95692 5.59704 8.1922 5.70016 8.38273L6.13988 8.14473ZM11.2986 13.5642L11.0422 13.9934C11.2428 14.1133 11.4996 14.0782 11.6607 13.9089L11.2986 13.5642ZM12.3905 12.4171L12.0303 12.0703L12.0284 12.0723L12.3905 12.4171ZM14.2047 12.0106L14.021 12.4757L14.0222 12.4761L14.2047 12.0106ZM16.6206 12.6429L16.6939 12.1483L16.6893 12.1476L16.6206 12.6429ZM17.5995 14.4765V17.1862H18.5995V14.4765H17.5995ZM17.5995 17.1881C17.6002 17.3736 17.564 17.5566 17.4939 17.7251L18.4171 18.1093C18.5388 17.8169 18.6007 17.5019 18.5995 17.1843L17.5995 17.1881ZM17.4939 17.7251C17.4237 17.8936 17.3216 18.043 17.1954 18.1647L17.8894 18.8847C18.1161 18.6662 18.2953 18.4018 18.4171 18.1093L17.4939 17.7251ZM17.1954 18.1647C17.0693 18.2862 16.9219 18.3773 16.7634 18.4336L17.0982 19.3759C17.3934 19.2711 17.6626 19.1032 17.8894 18.8847L17.1954 18.1647ZM16.7634 18.4336C16.605 18.4899 16.4379 18.5106 16.2724 18.4949L16.1779 19.4904C16.4894 19.52 16.803 19.4808 17.0982 19.3759L16.7634 18.4336ZM16.2818 18.4959C13.718 18.2032 11.2536 17.2827 9.08673 15.8065L8.5237 16.6329C10.8226 18.1991 13.4409 19.1781 16.1684 19.4894L16.2818 18.4959ZM9.08282 15.8039C7.06774 14.4587 5.35727 12.6625 4.07434 10.5415L3.21869 11.059C4.57587 13.3028 6.38792 15.2072 8.52761 16.6356L9.08282 15.8039ZM4.0721 10.5378C2.6593 8.24673 1.77916 5.63661 1.50444 2.91887L0.509514 3.01944C0.79923 5.88554 1.72762 8.64105 3.22092 11.0627L4.0721 10.5378ZM1.50514 2.9263C1.4893 2.74221 1.51019 2.55694 1.56608 2.38261L0.613819 2.07732C0.51731 2.37834 0.481683 2.69655 0.508818 3.01201L1.50514 2.9263ZM1.56608 2.38261C1.62196 2.20832 1.71126 2.0498 1.82699 1.91661L1.07214 1.26071C0.86598 1.49797 0.710338 1.77626 0.613819 2.07732L1.56608 2.38261ZM1.82699 1.91661C1.94266 1.78348 2.082 1.67877 2.23524 1.60766L1.81432 0.700562C1.53081 0.832119 1.27836 1.02338 1.07214 1.26071L1.82699 1.91661ZM2.23524 1.60766C2.3884 1.53659 2.55287 1.50025 2.71844 1.50009L2.71745 0.500088C2.40557 0.500396 2.09791 0.568966 1.81432 0.700562L2.23524 1.60766ZM2.71795 1.50009H5.2973V0.500088H2.71795V1.50009ZM5.30247 1.50006C5.5911 1.49708 5.87485 1.6042 6.10025 1.80784L6.77064 1.06583C6.36329 0.697802 5.83801 0.49447 5.29213 0.500114L5.30247 1.50006ZM6.10025 1.80784C6.3263 2.01206 6.47823 2.30001 6.52133 2.62033L7.5124 2.48699C7.4387 1.9392 7.17734 1.43327 6.77064 1.06583L6.10025 1.80784ZM6.52076 2.61595C6.6341 3.51876 6.84433 4.40545 7.14755 5.25913L8.08987 4.92442C7.81094 4.13912 7.61736 3.32291 7.51297 2.49138L6.52076 2.61595ZM7.14794 5.26022C7.23277 5.49729 7.25135 5.75597 7.20085 6.00472L8.18086 6.20368C8.26751 5.77686 8.23601 5.33284 8.08948 4.92333L7.14794 5.26022ZM7.20085 6.00472C7.15037 6.2534 7.03364 6.47866 6.86773 6.65491L7.59589 7.34032C7.89231 7.02541 8.0942 6.63056 8.18086 6.20368L7.20085 6.00472ZM6.86965 6.65288L5.77773 7.8L6.50204 8.48947L7.59397 7.34235L6.86965 6.65288ZM5.70016 8.38273C6.96576 10.721 8.81044 12.6603 11.0422 13.9934L11.555 13.1349C9.48172 11.8964 7.76191 10.0911 6.57961 7.90673L5.70016 8.38273ZM11.6607 13.9089L12.7527 12.7618L12.0284 12.0723L10.9364 13.2194L11.6607 13.9089ZM12.7507 12.7638C12.9182 12.5899 13.1267 12.4728 13.3503 12.4227L13.1316 11.4469C12.7121 11.5409 12.3304 11.7586 12.0303 12.0703L12.7507 12.7638ZM13.3503 12.4227C13.5736 12.3727 13.806 12.3908 14.021 12.4757L14.3883 11.5456C13.9878 11.3874 13.5513 11.3529 13.1316 11.4469L13.3503 12.4227ZM14.0222 12.4761C14.8387 12.7962 15.6874 13.0183 16.552 13.1381L16.6893 12.1476C15.903 12.0387 15.1307 11.8366 14.3871 11.5451L14.0222 12.4761ZM16.5473 13.1375C16.8369 13.1804 17.1069 13.3343 17.3032 13.5777L18.0816 12.95C17.7326 12.5172 17.2397 12.2292 16.6939 12.1483L16.5473 13.1375ZM17.3032 13.5777C17.5 13.8217 17.6073 14.1373 17.5996 14.4647L18.5993 14.4883C18.6125 13.9297 18.4301 13.3821 18.0816 12.95L17.3032 13.5777Z" fill="white"/>
<path fill-rule="evenodd" clip-rule="evenodd" d="M13.3777 2.56034C12.5956 2.21934 11.7663 2.01779 10.9235 1.9628C10.6625 1.94576 10.4502 1.73529 10.4502 1.47368V1.47368C10.4502 1.21208 10.6625 0.998562 10.9236 1.01381C11.8846 1.0699 12.8309 1.29647 13.7221 1.68508C14.7595 2.13738 15.702 2.80031 16.496 3.63604C17.2899 4.47177 17.9197 5.46392 18.3494 6.55585C18.7244 7.50903 18.9406 8.52196 18.9895 9.55017C19.0013 9.79841 18.7987 10 18.5502 10V10C18.3017 10 18.1014 9.79838 18.0883 9.5502C18.0402 8.64647 17.8477 7.75662 17.5179 6.91839C17.1334 5.9414 16.5699 5.05369 15.8596 4.30593C15.1492 3.55817 14.3059 2.96502 13.3777 2.56034Z" fill="white"/>
<path fill-rule="evenodd" clip-rule="evenodd" d="M12.3445 5.18604C11.8901 4.9879 11.411 4.86253 10.9231 4.81324C10.6628 4.78695 10.4502 4.57733 10.4502 4.31573V4.31573C10.4502 4.05412 10.6627 3.83995 10.9233 3.86221C11.5295 3.91398 12.1253 4.06503 12.6889 4.31078C13.3986 4.62025 14.0435 5.07383 14.5868 5.64565C15.13 6.21746 15.5609 6.8963 15.8549 7.64341C16.0943 8.25171 16.239 8.89556 16.2846 9.55029C16.3018 9.79822 16.0987 9.99994 15.8502 9.99994V9.99994C15.6017 9.99994 15.4021 9.79813 15.3817 9.55044C15.3381 9.02023 15.2175 8.49927 15.0234 8.00595C14.7746 7.37378 14.41 6.79938 13.9504 6.31554C13.4907 5.8317 12.945 5.44789 12.3445 5.18604Z" fill="white"/>
</svg>
