<svg width="44" height="44" viewBox="0 0 44 44" fill="none" xmlns="http://www.w3.org/2000/svg">
<mask id="path-1-inside-1_826_26731" fill="white">
<path fill-rule="evenodd" clip-rule="evenodd" d="M26.1235 12.0628C24.2835 11.977 19.726 11.9812 17.8844 12.0628C16.266 12.1387 14.8385 12.5295 13.6877 13.6803C11.9666 15.4014 11.9825 17.6577 12.0048 20.8366C12.0075 21.2102 12.0102 21.5965 12.0102 21.9962C12.0102 22.3702 12.0082 22.7317 12.0062 23.0813C11.988 26.3672 11.9757 28.6 13.6877 30.312C15.4119 32.0355 17.6931 32.0185 20.8361 31.9952C21.2127 31.9924 21.6017 31.9895 22.0035 31.9895H22.0578C25.8694 31.9895 27.1933 31.9895 28.5494 31.4645C30.4019 30.7453 31.8002 29.0895 31.9369 26.1153C32.0235 24.2745 32.0185 19.7178 31.9369 17.8762C31.7719 14.3653 29.8877 12.2362 26.1235 12.0628ZM22.0032 25.3276C20.1624 25.3276 18.6724 23.8368 18.6724 21.9968C18.6724 20.1568 20.1632 18.6659 22.0032 18.6659C23.8432 18.6659 25.334 20.1568 25.334 21.9968C25.3349 23.8368 23.844 25.3276 22.0032 25.3276ZM28.5374 16.6626C28.5374 17.3249 28.0005 17.8618 27.3383 17.8618C26.676 17.8618 26.1391 17.3249 26.1391 16.6626C26.1391 16.0003 26.676 15.4634 27.3383 15.4634C28.0005 15.4634 28.5374 16.0003 28.5374 16.6626Z"/>
</mask>
<path d="M17.8844 12.0628L17.8401 11.0638L17.8375 11.0639L17.8844 12.0628ZM26.1235 12.0628L26.0769 13.0617L26.0775 13.0618L26.1235 12.0628ZM13.6877 13.6803L12.9806 12.9732L12.9806 12.9732L13.6877 13.6803ZM12.0048 20.8366L13.0048 20.8296L12.0048 20.8366ZM12.0062 23.0813L11.0063 23.0758L12.0062 23.0813ZM13.6877 30.312L12.9806 31.0191L12.9807 31.0193L13.6877 30.312ZM20.8361 31.9952L20.8287 30.9952H20.8287L20.8361 31.9952ZM22.0578 31.9895L22.0578 30.9895H22.0578V31.9895ZM28.5494 31.4645L28.9104 32.397L28.9113 32.3967L28.5494 31.4645ZM31.9369 26.1153L30.938 26.0683L30.9379 26.0694L31.9369 26.1153ZM31.9369 17.8762L32.9359 17.8319L32.9357 17.8292L31.9369 17.8762ZM25.334 21.9968H24.334V21.9972L25.334 21.9968ZM17.9287 13.0618C19.742 12.9814 24.2691 12.9774 26.0769 13.0617L26.1701 11.0639C24.2979 10.9766 19.71 10.9809 17.8401 11.0638L17.9287 13.0618ZM14.3948 14.3874C15.3027 13.4796 16.4474 13.1313 17.9312 13.0617L17.8375 11.0639C16.0847 11.1461 14.3744 11.5794 12.9806 12.9732L14.3948 14.3874ZM13.0048 20.8296C12.9816 17.5328 13.0242 15.758 14.3948 14.3874L12.9806 12.9732C10.909 15.0448 10.9833 17.7826 11.0049 20.8437L13.0048 20.8296ZM13.0102 21.9962C13.0102 21.5924 13.0074 21.2027 13.0048 20.8296L11.0049 20.8437C11.0075 21.2177 11.0102 21.6006 11.0102 21.9962H13.0102ZM13.0062 23.0868C13.0082 22.7376 13.0102 22.3734 13.0102 21.9962H11.0102C11.0102 22.367 11.0082 22.7258 11.0063 23.0758L13.0062 23.0868ZM14.3948 29.6049C13.0335 28.2436 12.9873 26.4943 13.0062 23.0868L11.0063 23.0758C10.9887 26.24 10.9179 28.9564 12.9806 31.0191L14.3948 29.6049ZM20.8287 30.9952C17.5677 31.0194 15.7682 30.9777 14.3946 29.6047L12.9807 31.0193C15.0557 33.0933 17.8185 33.0176 20.8436 32.9952L20.8287 30.9952ZM22.0035 30.9895C21.5974 30.9895 21.2048 30.9924 20.8287 30.9952L20.8436 32.9952C21.2206 32.9924 21.606 32.9895 22.0035 32.9895V30.9895ZM22.0578 30.9895H22.0035V32.9895H22.0578V30.9895ZM28.1883 30.5319C27.049 30.973 25.9552 30.9895 22.0578 30.9895L22.0578 32.9895C25.7835 32.9895 27.3375 33.006 28.9104 32.397L28.1883 30.5319ZM30.9379 26.0694C30.8764 27.4074 30.5355 28.3766 30.0608 29.0714C29.5882 29.7632 28.9458 30.2379 28.1875 30.5323L28.9113 32.3967C30.0054 31.9719 30.9884 31.2591 31.7122 30.1997C32.434 29.1432 32.8606 27.7974 32.9358 26.1612L30.9379 26.0694ZM30.9378 17.9205C31.0183 19.7341 31.0231 24.2602 30.938 26.0683L32.9357 26.1624C33.024 24.2888 33.0188 19.7016 32.9359 17.8319L30.9378 17.9205ZM26.0775 13.0618C27.7791 13.1401 28.9224 13.651 29.6618 14.4139C30.406 15.1817 30.8631 16.331 30.938 17.9231L32.9357 17.8292C32.8456 15.9105 32.2782 14.2397 31.098 13.022C29.913 11.7993 28.2321 11.1589 26.1695 11.0639L26.0775 13.0618ZM17.6724 21.9968C17.6724 24.3889 19.6099 26.3276 22.0032 26.3276V24.3276C20.7148 24.3276 19.6724 23.2846 19.6724 21.9968H17.6724ZM22.0032 17.6659C19.6109 17.6659 17.6724 19.6045 17.6724 21.9968H19.6724C19.6724 20.7091 20.7155 19.6659 22.0032 19.6659V17.6659ZM26.334 21.9968C26.334 19.6045 24.3955 17.6659 22.0032 17.6659V19.6659C23.2909 19.6659 24.334 20.7091 24.334 21.9968H26.334ZM22.0032 26.3276C24.3961 26.3276 26.3351 24.3892 26.334 21.9963L24.334 21.9972C24.3346 23.2843 23.292 24.3276 22.0032 24.3276V26.3276ZM27.3383 18.8618C28.5528 18.8618 29.5374 17.8772 29.5374 16.6626H27.5374C27.5374 16.7726 27.4483 16.8618 27.3383 16.8618V18.8618ZM25.1391 16.6626C25.1391 17.8772 26.1237 18.8618 27.3383 18.8618V16.8618C27.2283 16.8618 27.1391 16.7726 27.1391 16.6626H25.1391ZM27.3383 14.4634C26.1237 14.4634 25.1391 15.448 25.1391 16.6626H27.1391C27.1391 16.5526 27.2283 16.4634 27.3383 16.4634V14.4634ZM29.5374 16.6626C29.5374 15.448 28.5528 14.4634 27.3383 14.4634V16.4634C27.4483 16.4634 27.5374 16.5526 27.5374 16.6626H29.5374Z" fill="white" mask="url(#path-1-inside-1_826_26731)"/>
</svg>
