<svg width="44" height="44" viewBox="0 0 44 44" fill="none" xmlns="http://www.w3.org/2000/svg">
<rect width="44" height="44" fill="#343232"/>
<path d="M19.5 30C19.5 30.8284 18.8284 31.5 18 31.5C17.1716 31.5 16.5 30.8284 16.5 30C16.5 29.1716 17.1716 28.5 18 28.5C18.8284 28.5 19.5 29.1716 19.5 30Z" stroke="white" stroke-linecap="round" stroke-linejoin="round"/>
<path d="M30.5 30C30.5 30.8284 29.8284 31.5 29 31.5C28.1716 31.5 27.5 30.8284 27.5 30C27.5 29.1716 28.1716 28.5 29 28.5C29.8284 28.5 30.5 29.1716 30.5 30Z" stroke="white" stroke-linecap="round" stroke-linejoin="round"/>
<path d="M11 12H14.3748L16.9059 26.7815H30.4051" stroke="white" stroke-linecap="round" stroke-linejoin="round"/>
<mask id="path-4-inside-1_847_18652" fill="white">
<path d="M15.9998 23.4067H30.059C30.1565 23.4068 30.2511 23.373 30.3266 23.3112C30.402 23.2494 30.4537 23.1633 30.4729 23.0677L31.9916 15.4744C32.0038 15.4131 32.0023 15.35 31.9872 15.2894C31.9721 15.2288 31.9437 15.1723 31.9041 15.124C31.8645 15.0758 31.8146 15.0369 31.7582 15.0102C31.7017 14.9835 31.6401 14.9697 31.5776 14.9697H15.2183"/>
</mask>
<path d="M15.9998 22.4067C15.4475 22.4067 14.9998 22.8544 14.9998 23.4067C14.9998 23.959 15.4475 24.4067 15.9998 24.4067V22.4067ZM30.059 23.4067L30.0597 22.4067H30.059V23.4067ZM30.4729 23.0677L31.4534 23.2639L31.4535 23.2638L30.4729 23.0677ZM31.9916 15.4744L31.011 15.2781L31.011 15.2782L31.9916 15.4744ZM31.5776 14.9697V15.9697L31.5783 15.9697L31.5776 14.9697ZM15.2183 13.9697C14.666 13.9697 14.2183 14.4174 14.2183 14.9697C14.2183 15.522 14.666 15.9697 15.2183 15.9697V13.9697ZM15.9998 24.4067H30.059V22.4067H15.9998V24.4067ZM30.0583 24.4067C30.3871 24.407 30.7058 24.2932 30.9602 24.0848L29.6929 22.5376C29.7963 22.4529 29.9259 22.4066 30.0597 22.4067L30.0583 24.4067ZM30.9602 24.0848C31.2146 23.8765 31.3889 23.5864 31.4534 23.2639L29.4923 22.8714C29.5186 22.7403 29.5895 22.6223 29.6929 22.5376L30.9602 24.0848ZM31.4535 23.2638L32.9721 15.6705L31.011 15.2782L29.4923 22.8716L31.4535 23.2638ZM32.9721 15.6706C33.0134 15.4642 33.0084 15.2513 32.9574 15.0471L31.017 15.5317C30.9963 15.4486 30.9942 15.362 31.011 15.2781L32.9721 15.6706ZM32.9574 15.0471C32.9064 14.8429 32.8107 14.6525 32.6772 14.4898L31.1309 15.7582C31.0766 15.6921 31.0377 15.6147 31.017 15.5317L32.9574 15.0471ZM32.6772 14.4898C32.5438 14.3271 32.3758 14.196 32.1855 14.1061L31.3308 15.9143C31.2535 15.8777 31.1852 15.8244 31.1309 15.7582L32.6772 14.4898ZM32.1855 14.1061C31.9953 14.0162 31.7874 13.9696 31.5769 13.9697L31.5783 15.9697C31.4927 15.9698 31.4082 15.9508 31.3308 15.9143L32.1855 14.1061ZM31.5776 13.9697H15.2183V15.9697H31.5776V13.9697Z" fill="white" mask="url(#path-4-inside-1_847_18652)"/>
</svg>
