<svg width="44" height="44" viewBox="0 0 44 44" fill="none" xmlns="http://www.w3.org/2000/svg">
<rect width="44" height="44" fill="#1A1919"/>
<path d="M32 22C32 16.4862 27.5138 12 22 12C16.4862 12 12 16.4862 12 22C12 24.9124 13.2524 27.5375 15.2458 29.3665L15.2364 29.3749L15.5607 29.6484C15.5818 29.6662 15.6047 29.6807 15.6258 29.6982C15.7982 29.8411 15.9767 29.9767 16.1585 30.108C16.2175 30.1505 16.2764 30.1931 16.3364 30.2345C16.5305 30.3684 16.7298 30.4953 16.9335 30.6156C16.9778 30.6418 17.0225 30.6673 17.0673 30.6927C17.2902 30.8196 17.5178 30.9393 17.7509 31.0491C17.768 31.0571 17.7855 31.0644 17.8025 31.0724C18.5622 31.4255 19.3731 31.6847 20.2211 31.8378C20.2433 31.8418 20.2655 31.8458 20.288 31.8498C20.5513 31.8953 20.8175 31.9316 21.0869 31.956C21.1196 31.9589 21.1524 31.9607 21.1855 31.9636C21.4538 31.9858 21.7251 32 22 32C22.2724 32 22.5411 31.9858 22.808 31.9644C22.8418 31.9615 22.8756 31.9596 22.9095 31.9567C23.1767 31.9324 23.4407 31.8971 23.7015 31.8524C23.724 31.8484 23.7469 31.8444 23.7695 31.84C24.6047 31.6902 25.404 31.4367 26.1538 31.0927C26.1815 31.08 26.2095 31.068 26.2371 31.0549C26.4615 30.9495 26.6807 30.8356 26.8956 30.7145C26.9491 30.6844 27.0022 30.6538 27.0553 30.6225C27.2509 30.5073 27.4433 30.3869 27.6302 30.2589C27.6975 30.2131 27.7633 30.1647 27.8298 30.1167C27.9895 30.0018 28.1462 29.8833 28.2985 29.7593C28.3324 29.732 28.3687 29.7084 28.4018 29.6804L28.7345 29.4025L28.7247 29.3942C30.7356 27.5644 32 24.9273 32 22ZM12.7273 22C12.7273 16.8869 16.8869 12.7273 22 12.7273C27.1131 12.7273 31.2727 16.8869 31.2727 22C31.2727 24.7553 30.0636 27.2324 28.1495 28.932C28.0425 28.8582 27.9349 28.792 27.8247 28.7367L24.7458 27.1975C24.4695 27.0593 24.2978 26.7815 24.2978 26.4727V25.3975C24.3691 25.3095 24.4444 25.2098 24.5222 25.1004C24.9207 24.5375 25.2404 23.9113 25.4735 23.2375C25.9342 23.0185 26.2316 22.5596 26.2316 22.0415V20.7524C26.2316 20.4371 26.116 20.1313 25.9091 19.8909V18.1938C25.928 18.0051 25.9949 16.94 25.2244 16.0615C24.5542 15.2964 23.4695 14.9091 22 14.9091C20.5305 14.9091 19.4458 15.2964 18.7756 16.0611C18.0051 16.9396 18.072 18.0047 18.0909 18.1935V19.8905C17.8844 20.1309 17.7684 20.4367 17.7684 20.752V22.0411C17.7684 22.4415 17.948 22.8149 18.2556 23.0669C18.5502 24.2207 19.1564 25.0942 19.3804 25.3902V26.4425C19.3804 26.7393 19.2185 27.012 18.9578 27.1545L16.0825 28.7229C15.9909 28.7727 15.9 28.8309 15.8091 28.896C13.9185 27.1971 12.7273 24.7353 12.7273 22ZM27.4396 29.5025C27.3124 29.5949 27.1829 29.6844 27.0516 29.7698C26.9913 29.8091 26.9313 29.8484 26.8698 29.8865C26.6982 29.9927 26.5236 30.0938 26.3455 30.1884C26.3062 30.2091 26.2665 30.2287 26.2269 30.2491C25.8175 30.4589 25.3938 30.6393 24.9585 30.7858C24.9433 30.7909 24.928 30.7964 24.9124 30.8015C24.6844 30.8771 24.4535 30.9444 24.22 31.0022C24.2193 31.0022 24.2185 31.0025 24.2178 31.0025C23.9822 31.0607 23.7436 31.1091 23.5036 31.1487C23.4971 31.1498 23.4905 31.1513 23.484 31.1524C23.2582 31.1891 23.0305 31.2156 22.8022 31.2356C22.7618 31.2393 22.7215 31.2418 22.6807 31.2447C22.4549 31.2618 22.228 31.2727 22 31.2727C21.7695 31.2727 21.5396 31.2615 21.3109 31.2444C21.2713 31.2415 21.2316 31.2389 21.1924 31.2353C20.9618 31.2149 20.7324 31.1876 20.5051 31.1505C20.4949 31.1487 20.4847 31.1469 20.4745 31.1451C19.9938 31.0647 19.5207 30.9465 19.06 30.792C19.0458 30.7873 19.0313 30.7822 19.0171 30.7775C18.7884 30.6996 18.5622 30.6135 18.34 30.5182C18.3385 30.5175 18.3367 30.5167 18.3353 30.516C18.1251 30.4255 17.9189 30.3251 17.7153 30.2193C17.6887 30.2055 17.6618 30.1924 17.6356 30.1782C17.4498 30.0789 17.268 29.9716 17.0887 29.8596C17.0356 29.8262 16.9829 29.7924 16.9305 29.7582C16.7655 29.6502 16.6025 29.5378 16.444 29.4189C16.4276 29.4065 16.412 29.3935 16.3956 29.3811C16.4073 29.3745 16.4189 29.368 16.4305 29.3615L19.3058 27.7931C19.8004 27.5233 20.1076 27.0058 20.1076 26.4425L20.1073 25.1327L20.0236 25.0316C20.0156 25.0225 19.2295 24.0662 18.9324 22.7713L18.8993 22.6273L18.7753 22.5469C18.6004 22.4338 18.4956 22.2447 18.4956 22.0407V20.7516C18.4956 20.5825 18.5673 20.4251 18.6982 20.3069L18.8182 20.1985V18.1731L18.8149 18.1255C18.8138 18.1167 18.7065 17.2422 19.3225 16.54C19.8484 15.9407 20.7495 15.6364 22 15.6364C23.2458 15.6364 24.144 15.9382 24.6713 16.5331C25.2865 17.228 25.1858 18.1189 25.1851 18.1262L25.1818 20.1993L25.3018 20.3076C25.4324 20.4255 25.5044 20.5833 25.5044 20.7524V22.0415C25.5044 22.3007 25.328 22.536 25.0749 22.6142L24.8942 22.6698L24.836 22.8498C24.6215 23.5164 24.316 24.132 23.9284 24.6796C23.8331 24.8142 23.7404 24.9335 23.6607 25.0247L23.5705 25.1276V26.4727C23.5705 27.0589 23.8964 27.5862 24.4207 27.848L27.4996 29.3873C27.5193 29.3971 27.5385 29.4073 27.5578 29.4175C27.5189 29.4469 27.4789 29.4742 27.4396 29.5025Z" fill="white"/>
</svg>
