<svg width="44" height="44" viewBox="0 0 44 44" fill="none" xmlns="http://www.w3.org/2000/svg">
<mask id="path-1-inside-1_826_26730" fill="white">
<path d="M22 32C27.5242 32 32 27.5242 32 22C32 16.4758 27.5242 12 22 12C16.4758 12 12 16.4758 12 22C12 27.5242 16.4758 32 22 32ZM16.5758 21.7833L26.2175 18.0658C26.665 17.9042 27.0558 18.175 26.9108 18.8517C26.7658 19.5283 26.9133 18.8401 26.9133 18.8401L25.27 26.585C25.1483 27.1333 24.8225 27.2667 24.3667 27.0083L21.8667 25.1658L20.6608 26.3275C20.5275 26.4608 20.415 26.5733 20.1567 26.5733L20.3342 24.0292L24.9675 19.8433C25.1692 19.6658 24.9225 19.5658 24.6567 19.7425L18.9308 23.3475L16.4625 22.5775C15.9267 22.4075 15.915 22.0417 16.5758 21.7833Z"/>
</mask>
<path d="M16.5758 21.7833L16.2161 20.8503L16.2117 20.852L16.5758 21.7833ZM26.2175 18.0658L25.8777 17.1253L25.8677 17.1289L25.8577 17.1328L26.2175 18.0658ZM26.9108 18.8517L27.8886 19.0612L26.9108 18.8517ZM26.9133 18.8401L27.8915 19.0476L25.9355 18.6306L26.9133 18.8401ZM25.27 26.585L26.2463 26.8016L26.2482 26.7926L25.27 26.585ZM24.3667 27.0083L23.7734 27.8133L23.8216 27.8488L23.8736 27.8783L24.3667 27.0083ZM21.8667 25.1658L22.4599 24.3608L21.7806 23.8602L21.1729 24.4457L21.8667 25.1658ZM20.6608 26.3275L19.967 25.6073L19.9603 25.6138L19.9537 25.6204L20.6608 26.3275ZM20.1567 26.5733L19.1591 26.5037L19.0845 27.5733H20.1567V26.5733ZM20.3342 24.0292L19.6638 23.2871L19.3647 23.5574L19.3366 23.9596L20.3342 24.0292ZM24.9675 19.8433L24.3067 19.0926L24.2971 19.1013L24.9675 19.8433ZM24.6567 19.7425L25.1895 20.5887L25.1999 20.5822L25.2102 20.5754L24.6567 19.7425ZM18.9308 23.3475L18.633 24.3021L19.0733 24.4395L19.4636 24.1937L18.9308 23.3475ZM16.4625 22.5775L16.1601 23.5307L16.1647 23.5321L16.4625 22.5775ZM22 33C28.0765 33 33 28.0765 33 22H31C31 26.9719 26.9719 31 22 31V33ZM33 22C33 15.9235 28.0765 11 22 11V13C26.9719 13 31 17.0281 31 22H33ZM22 11C15.9235 11 11 15.9235 11 22H13C13 17.0281 17.0281 13 22 13V11ZM11 22C11 28.0765 15.9235 33 22 33V31C17.0281 31 13 26.9719 13 22H11ZM16.9356 22.7164L26.5773 18.9989L25.8577 17.1328L16.2161 20.8503L16.9356 22.7164ZM26.5573 19.0063C26.5429 19.0115 26.3094 19.0759 26.0884 18.8605C25.8795 18.6569 25.9679 18.4793 25.933 18.6421L27.8886 19.0612C27.9987 18.5474 27.9643 17.896 27.4843 17.4282C26.9923 16.9487 26.3396 16.9585 25.8777 17.1253L26.5573 19.0063ZM25.933 18.6421C25.8968 18.8113 25.8788 18.8951 25.8723 18.9257C25.8706 18.9335 25.8697 18.9374 25.8695 18.9386C25.8686 18.9428 25.87 18.9363 25.8712 18.9308C25.8734 18.9212 27.0579 18.1719 27.83 19.3332C27.8284 19.3416 27.8263 19.3518 27.826 19.3536C27.8258 19.3543 27.8256 19.3555 27.8255 19.3559C27.8254 19.3562 27.8253 19.3566 27.8253 19.3568C27.8252 19.3571 27.8252 19.3573 27.8251 19.3574C27.8251 19.3575 27.8251 19.3576 27.8251 19.3576C27.8251 19.3576 27.8251 19.3575 27.8252 19.3573C27.8252 19.3572 27.8252 19.357 27.8253 19.3567C27.8254 19.3561 27.8256 19.3554 27.8258 19.3546C27.8273 19.3474 27.8308 19.3309 27.8355 19.309C27.8449 19.2653 27.8588 19.2004 27.8703 19.1465C27.8761 19.1195 27.8813 19.0953 27.885 19.0778C27.8869 19.069 27.8884 19.062 27.8895 19.0571C27.89 19.0546 27.8904 19.0528 27.8907 19.0515C27.8908 19.0508 27.8909 19.0503 27.891 19.05C27.891 19.0499 27.891 19.0497 27.8911 19.0496C27.8911 19.0496 27.8911 19.0496 27.8911 19.0496C27.8911 19.0495 27.8911 19.0495 27.8911 19.0495C27.8911 19.0495 27.8911 19.0495 26.9133 18.8401C25.9355 18.6306 25.9355 18.6306 25.9355 18.6306C25.9355 18.6306 25.9355 18.6306 25.9355 18.6306C25.9355 18.6306 25.9354 18.6307 25.9354 18.6307C25.9354 18.6308 25.9354 18.6309 25.9354 18.6311C25.9353 18.6314 25.9352 18.6319 25.935 18.6325C25.9348 18.6338 25.9344 18.6357 25.9338 18.6381C25.9328 18.643 25.9313 18.6501 25.9294 18.6588C25.9257 18.6763 25.9205 18.7006 25.9147 18.7276C25.9031 18.7815 25.8892 18.8464 25.8799 18.8902C25.8752 18.912 25.8716 18.9287 25.87 18.9362C25.8696 18.9379 25.8693 18.9395 25.8691 18.9405C25.8691 18.9406 25.8689 18.9412 25.8688 18.9419C25.8687 18.9421 25.8686 18.9426 25.8686 18.9429C25.8685 18.9433 25.8682 18.9445 25.8681 18.9453C25.8677 18.947 25.8657 18.9572 25.864 18.9657C26.6361 20.1269 27.8206 19.3777 27.8228 19.368C27.8232 19.3662 27.8238 19.3636 27.824 19.3628C27.8241 19.3623 27.8242 19.3616 27.8243 19.3613C27.8244 19.3608 27.8245 19.3603 27.8246 19.3602C27.8247 19.3597 27.8247 19.3593 27.8248 19.3591C27.8252 19.3572 27.8262 19.3525 27.8278 19.345C27.8344 19.3143 27.8524 19.2303 27.8886 19.0612L25.933 18.6421ZM25.9351 18.6325L24.2918 26.3774L26.2482 26.7926L27.8915 19.0476L25.9351 18.6325ZM24.2937 26.3684C24.2607 26.5171 24.2627 26.3098 24.5311 26.1882C24.8036 26.0648 24.9705 26.2011 24.8597 26.1383L23.8736 27.8783C24.2187 28.0739 24.7764 28.2727 25.3562 28.0101C25.9318 27.7494 26.1576 27.2012 26.2463 26.8016L24.2937 26.3684ZM24.9599 26.2033L22.4599 24.3608L21.2734 25.9708L23.7734 27.8133L24.9599 26.2033ZM21.1729 24.4457L19.967 25.6073L21.3546 27.0477L22.5605 25.886L21.1729 24.4457ZM19.9537 25.6204C19.916 25.6581 19.9069 25.6667 19.902 25.671C19.9011 25.6718 19.9195 25.6554 19.9532 25.6358C19.9894 25.6147 20.0316 25.5968 20.0759 25.5854C20.1185 25.5744 20.1479 25.5733 20.1567 25.5733V27.5733C20.4472 27.5733 20.7158 27.5058 20.958 27.365C21.1666 27.2438 21.3175 27.085 21.3679 27.0346L19.9537 25.6204ZM21.1542 26.6429L21.3317 24.0988L19.3366 23.9596L19.1591 26.5037L21.1542 26.6429ZM21.0045 24.7712L25.6379 20.5854L24.2971 19.1013L19.6638 23.2871L21.0045 24.7712ZM25.6282 20.594C25.7447 20.4915 26.0254 20.2124 26.0408 19.7621C26.0613 19.162 25.6269 18.8276 25.3263 18.7193C25.0548 18.6215 24.7993 18.6448 24.6296 18.6824C24.4415 18.724 24.263 18.8034 24.1032 18.9096L25.2102 20.5754C25.1832 20.5932 25.1353 20.6189 25.0619 20.6351C25.0069 20.6473 24.8503 20.6736 24.6485 20.6009C24.5416 20.5624 24.3851 20.4815 24.2517 20.3174C24.1074 20.1398 24.0343 19.917 24.042 19.6936C24.0552 19.3065 24.2911 19.1065 24.3068 19.0927L25.6282 20.594ZM24.1239 18.8963L18.398 22.5013L19.4636 24.1937L25.1895 20.5887L24.1239 18.8963ZM19.2286 22.3929L16.7603 21.6229L16.1647 23.5321L18.633 24.3021L19.2286 22.3929ZM16.7649 21.6243C16.714 21.6082 16.7656 21.6135 16.8466 21.6899C16.942 21.7796 17.0936 21.993 17.0666 22.3009C17.0424 22.5766 16.8911 22.72 16.8638 22.744C16.831 22.7727 16.8403 22.7536 16.9399 22.7147L16.2117 20.852C15.981 20.9422 15.7439 21.0657 15.5442 21.241C15.3499 21.4116 15.1111 21.7054 15.0742 22.1262C15.0345 22.5791 15.2482 22.932 15.4758 23.1462C15.6891 23.347 15.9431 23.4618 16.1601 23.5307L16.7649 21.6243Z" fill="white" mask="url(#path-1-inside-1_826_26730)"/>
</svg>
