<svg width="44" height="44" viewBox="0 0 44 44" fill="none" xmlns="http://www.w3.org/2000/svg">
<rect width="44" height="44" fill="#1A1919"/>
<path d="M27.8147 24.3893C27.4047 23.963 26.9101 23.735 26.3859 23.735C25.866 23.735 25.3672 23.9587 24.9402 24.3851L23.6044 25.7147C23.4945 25.6556 23.3846 25.6008 23.2789 25.5459C23.1267 25.4699 22.983 25.3982 22.8604 25.3222C21.6091 24.5286 20.472 23.4944 19.3813 22.1563C18.8529 21.4894 18.4978 20.928 18.24 20.3581C18.5866 20.0415 18.9079 19.7123 19.2207 19.3957C19.339 19.2775 19.4574 19.1551 19.5758 19.0369C20.4635 18.1505 20.4635 17.0023 19.5758 16.1159L18.4217 14.9635C18.2907 14.8327 18.1554 14.6976 18.0286 14.5625C17.775 14.3008 17.5086 14.0306 17.2339 13.7774C16.8238 13.3721 16.3334 13.1569 15.8177 13.1569C15.302 13.1569 14.8032 13.3721 14.3804 13.7774C14.3762 13.7816 14.3762 13.7816 14.372 13.7858L12.9347 15.2337C12.3936 15.774 12.085 16.4325 12.0174 17.1965C11.9159 18.4291 12.2795 19.5772 12.5585 20.3286C13.2433 22.1732 14.2663 23.8828 15.7924 25.7147C17.6439 27.9224 19.8717 29.6657 22.4165 30.8941C23.3888 31.3542 24.6866 31.8987 26.1365 31.9916C26.2253 31.9958 26.3183 32 26.4028 32C27.3793 32 28.1994 31.6497 28.842 30.9532C28.8462 30.9447 28.8547 30.9405 28.8589 30.9321C29.0787 30.6661 29.3323 30.4255 29.5987 30.168C29.7804 29.995 29.9664 29.8135 30.1482 29.6235C30.5667 29.1887 30.7865 28.6822 30.7865 28.163C30.7865 27.6396 30.5625 27.1373 30.1355 26.7151L27.8147 24.3893ZM29.3281 28.8342C29.3239 28.8342 29.3239 28.8384 29.3281 28.8342C29.1632 29.0114 28.9942 29.1719 28.8124 29.3491C28.5376 29.6108 28.2586 29.8852 27.9965 30.1934C27.5696 30.6492 27.0665 30.8645 26.4071 30.8645C26.3437 30.8645 26.276 30.8645 26.2126 30.8603C24.9571 30.7801 23.7904 30.2905 22.9153 29.8726C20.5227 28.716 18.4217 27.0739 16.6759 24.9929C15.2344 23.258 14.2705 21.654 13.6322 19.9318C13.2391 18.8807 13.0954 18.0618 13.1588 17.2894C13.201 16.7955 13.3913 16.386 13.7421 16.0357L15.1836 14.5963C15.3908 14.4021 15.6106 14.2966 15.8262 14.2966C16.0925 14.2966 16.3081 14.457 16.4434 14.592C16.4476 14.5963 16.4518 14.6005 16.456 14.6047C16.7139 14.8453 16.9591 15.0944 17.217 15.3603C17.348 15.4954 17.4833 15.6304 17.6185 15.7697L18.7726 16.9221C19.2207 17.3696 19.2207 17.7832 18.7726 18.2307C18.65 18.3531 18.5316 18.4755 18.409 18.5937C18.054 18.9567 17.7158 19.2944 17.348 19.6236C17.3395 19.6321 17.3311 19.6363 17.3269 19.6447C16.9633 20.0078 17.031 20.3623 17.107 20.6029C17.1113 20.6156 17.1155 20.6283 17.1197 20.6409C17.4199 21.367 17.8426 22.0508 18.4851 22.8655L18.4894 22.8697C19.6561 24.3049 20.8862 25.4235 22.2432 26.2804C22.4165 26.3901 22.5941 26.4788 22.7631 26.5632C22.9153 26.6392 23.0591 26.7109 23.1816 26.7869C23.1986 26.7954 23.2155 26.808 23.2324 26.8165C23.3761 26.8882 23.5114 26.922 23.6509 26.922C24.0017 26.922 24.2216 26.7025 24.2934 26.6307L25.7392 25.1871C25.8829 25.0436 26.1112 24.8705 26.3775 24.8705C26.6396 24.8705 26.8552 25.0351 26.9862 25.1787C26.9904 25.1829 26.9904 25.1829 26.9947 25.1871L29.3239 27.5129C29.7593 27.9435 29.7593 28.3867 29.3281 28.8342Z" fill="white"/>
<path d="M22.8096 16.7575C23.9171 16.9433 24.9232 17.4667 25.7264 18.2687C26.5296 19.0707 27.0495 20.0753 27.2398 21.1813C27.2863 21.4599 27.5272 21.654 27.802 21.654C27.8358 21.654 27.8654 21.6498 27.8992 21.6456C28.212 21.595 28.4192 21.2995 28.3685 20.9871C28.1402 19.649 27.5061 18.4291 26.538 17.4625C25.57 16.4958 24.3483 15.8626 23.0083 15.6347C22.6955 15.5841 22.4038 15.7909 22.3488 16.099C22.2939 16.4072 22.4968 16.7069 22.8096 16.7575Z" fill="white"/>
<path d="M31.9914 20.8224C31.6152 18.619 30.5752 16.6139 28.9773 15.0184C27.3794 13.4228 25.3715 12.3844 23.1648 12.0087C22.8562 11.9538 22.5645 12.1649 22.5096 12.473C22.4589 12.7854 22.666 13.0766 22.9788 13.1315C24.9487 13.465 26.7453 14.3979 28.1741 15.8204C29.603 17.2471 30.533 19.0411 30.8669 21.0082C30.9134 21.2867 31.1544 21.4809 31.4292 21.4809C31.463 21.4809 31.4926 21.4767 31.5264 21.4725C31.835 21.426 32.0463 21.1306 31.9914 20.8224Z" fill="white"/>
</svg>
