<svg width="44" height="44" viewBox="0 0 44 44" fill="none" xmlns="http://www.w3.org/2000/svg">
<mask id="path-1-inside-1_826_26732" fill="white">
<path d="M31.5573 16.9407L31.5823 17.104C31.3406 16.2465 30.6881 15.5848 29.8589 15.344L29.8414 15.3398C28.2823 14.9165 22.0081 14.9165 22.0081 14.9165C22.0081 14.9165 15.7498 14.9082 14.1748 15.3398C13.3298 15.5848 12.6764 16.2465 12.4389 17.0865L12.4348 17.104C11.8523 20.1465 11.8481 23.8024 12.4606 27.0599L12.4348 26.8949C12.6764 27.7524 13.3289 28.414 14.1581 28.6549L14.1756 28.659C15.7331 29.0832 22.0089 29.0832 22.0089 29.0832C22.0089 29.0832 28.2664 29.0832 29.8423 28.659C30.6881 28.414 31.3414 27.7524 31.5789 26.9124L31.5831 26.8949C31.8481 25.4799 31.9998 23.8515 31.9998 22.1882C31.9998 22.1274 31.9998 22.0657 31.9989 22.004C31.9998 21.9474 31.9998 21.8799 31.9998 21.8124C31.9998 20.1482 31.8481 18.5199 31.5573 16.9407ZM21.5088 24.1693C20.8422 24.5567 20.0064 24.0758 20.0064 23.3047V20.7051C20.0064 19.9335 20.8433 19.4526 21.51 19.8412L23.7435 21.1429C24.4059 21.529 24.4053 22.4863 23.7423 22.8715L21.5088 24.1693Z"/>
</mask>
<path d="M31.5573 16.9407L32.5407 16.7596L30.5688 17.092L31.5573 16.9407ZM31.5823 17.104L30.6198 17.3753L32.5707 16.9527L31.5823 17.104ZM29.8589 15.344L30.1378 14.3837L30.1144 14.3769L30.0906 14.3712L29.8589 15.344ZM29.8414 15.3398L29.5794 16.3049L29.5945 16.309L29.6098 16.3127L29.8414 15.3398ZM22.0081 14.9165L22.0068 15.9165H22.0081V14.9165ZM14.1748 15.3398L13.9104 14.3754L13.9033 14.3774L13.8963 14.3794L14.1748 15.3398ZM12.4389 17.0865L11.4766 16.8144L11.471 16.8346L11.4661 16.8549L12.4389 17.0865ZM12.4348 17.104L11.462 16.8724L11.4568 16.8941L11.4526 16.916L12.4348 17.104ZM12.4606 27.0599L11.4778 27.2446L13.4486 26.9052L12.4606 27.0599ZM12.4348 26.8949L13.3973 26.6236L11.4468 27.0495L12.4348 26.8949ZM14.1581 28.6549L13.8792 29.6152L13.9027 29.622L13.9265 29.6277L14.1581 28.6549ZM14.1756 28.659L14.4384 27.6942L14.4228 27.6899L14.4072 27.6862L14.1756 28.659ZM22.0089 29.0832V28.0832V29.0832ZM29.8423 28.659L30.1022 29.6247L30.1114 29.6222L30.1205 29.6195L29.8423 28.659ZM31.5789 26.9124L32.5412 27.1844L32.5469 27.1643L32.5517 27.144L31.5789 26.9124ZM31.5831 26.8949L32.5559 27.1265L32.5615 27.1028L32.566 27.0789L31.5831 26.8949ZM31.9989 22.004L30.999 21.9893L30.9988 22.0034L30.999 22.0175L31.9989 22.004ZM23.7423 22.8715L24.2448 23.7361L23.7423 22.8715ZM21.5088 24.1693L21.0064 23.3047L21.5088 24.1693ZM30.5688 17.092L30.5938 17.2553L32.5707 16.9527L32.5457 16.7894L30.5688 17.092ZM32.5448 16.8328C32.2118 15.6512 31.3067 14.7232 30.1378 14.3837L29.58 16.3043C30.0695 16.4465 30.4694 16.8418 30.6198 17.3753L32.5448 16.8328ZM30.0906 14.3712L30.0731 14.367L29.6098 16.3127L29.6273 16.3168L30.0906 14.3712ZM30.1035 14.3748C29.6084 14.2404 28.8327 14.1568 28.0332 14.0978C27.2051 14.0368 26.2585 13.9965 25.3701 13.9699C24.48 13.9432 23.6403 13.9298 23.0236 13.9232C22.715 13.9199 22.4618 13.9182 22.2855 13.9174C22.1973 13.9169 22.1283 13.9167 22.0812 13.9166C22.0576 13.9166 22.0395 13.9165 22.0272 13.9165C22.0211 13.9165 22.0164 13.9165 22.0132 13.9165C22.0116 13.9165 22.0104 13.9165 22.0095 13.9165C22.0091 13.9165 22.0087 13.9165 22.0085 13.9165C22.0084 13.9165 22.0083 13.9165 22.0082 13.9165C22.0081 13.9165 22.0081 13.9165 22.0081 14.9165C22.0081 15.9165 22.0081 15.9165 22.0081 15.9165C22.0081 15.9165 22.0082 15.9165 22.0082 15.9165C22.0084 15.9165 22.0086 15.9165 22.009 15.9165C22.0096 15.9165 22.0107 15.9165 22.0121 15.9165C22.015 15.9165 22.0193 15.9165 22.0251 15.9165C22.0366 15.9165 22.0539 15.9166 22.0767 15.9166C22.1223 15.9167 22.1896 15.9169 22.276 15.9173C22.4489 15.9181 22.698 15.9198 23.002 15.9231C23.6104 15.9296 24.4367 15.9428 25.3101 15.969C26.1851 15.9952 27.0993 16.0344 27.8862 16.0924C28.7016 16.1525 29.2949 16.2277 29.5794 16.3049L30.1035 14.3748ZM22.0081 14.9165C22.0094 13.9165 22.0094 13.9165 22.0093 13.9165C22.0092 13.9165 22.0091 13.9165 22.009 13.9165C22.0088 13.9165 22.0084 13.9165 22.008 13.9165C22.0072 13.9165 22.0059 13.9165 22.0043 13.9165C22.0011 13.9165 21.9964 13.9165 21.9903 13.9165C21.978 13.9165 21.96 13.9165 21.9365 13.9165C21.8894 13.9166 21.8206 13.9167 21.7326 13.917C21.5566 13.9176 21.3039 13.919 20.9959 13.922C20.3803 13.928 19.5419 13.9406 18.6526 13.9667C17.765 13.9929 16.8185 14.0328 15.9892 14.0943C15.1883 14.1537 14.4102 14.2384 13.9104 14.3754L14.4391 16.3043C14.7268 16.2254 15.3216 16.1493 16.1371 16.0889C16.9242 16.0305 17.8376 15.9916 18.7115 15.9659C19.5837 15.9402 20.4083 15.9278 21.0154 15.9219C21.3187 15.919 21.5672 15.9176 21.7396 15.917C21.8258 15.9167 21.893 15.9166 21.9384 15.9165C21.9611 15.9165 21.9784 15.9165 21.9899 15.9165C21.9956 15.9165 21.9999 15.9165 22.0028 15.9165C22.0042 15.9165 22.0052 15.9165 22.0059 15.9165C22.0062 15.9165 22.0065 15.9165 22.0066 15.9165C22.0067 15.9165 22.0067 15.9165 22.0068 15.9165C22.0068 15.9165 22.0068 15.9165 22.0081 14.9165ZM13.8963 14.3794C12.7189 14.7208 11.8078 15.6433 11.4766 16.8144L13.4012 17.3586C13.5451 16.8497 13.9406 16.4489 14.4532 16.3003L13.8963 14.3794ZM11.4661 16.8549L11.462 16.8724L13.4076 17.3356L13.4117 17.3181L11.4661 16.8549ZM11.4526 16.916C10.8457 20.0859 10.843 23.8683 11.4778 27.2446L13.4434 26.8751C12.8532 23.7364 12.8588 20.2071 13.4169 17.2921L11.4526 16.916ZM13.4486 26.9052L13.4227 26.7402L11.4468 27.0495L11.4726 27.2145L13.4486 26.9052ZM11.4723 27.1661C11.8052 28.3477 12.7104 29.2757 13.8792 29.6152L14.437 27.6945C13.9475 27.5524 13.5476 27.157 13.3973 26.6236L11.4723 27.1661ZM13.9265 29.6277L13.944 29.6318L14.4072 27.6862L14.3897 27.682L13.9265 29.6277ZM13.9128 29.6239C14.4078 29.7587 15.1836 29.8425 15.9829 29.9015C16.811 29.9627 17.7578 30.003 18.6463 30.0297C19.5364 30.0565 20.3763 30.0698 20.9932 30.0765C21.3018 30.0798 21.5551 30.0815 21.7315 30.0824C21.8197 30.0828 21.8887 30.083 21.9358 30.0831C21.9594 30.0831 21.9775 30.0832 21.9898 30.0832C21.9959 30.0832 22.0006 30.0832 22.0038 30.0832C22.0054 30.0832 22.0067 30.0832 22.0075 30.0832C22.0079 30.0832 22.0083 30.0832 22.0085 30.0832C22.0086 30.0832 22.0087 30.0832 22.0088 30.0832C22.0089 30.0832 22.0089 30.0832 22.0089 29.0832C22.0089 28.0832 22.0089 28.0832 22.0089 28.0832C22.0089 28.0832 22.0088 28.0832 22.0088 28.0832C22.0086 28.0832 22.0084 28.0832 22.008 28.0832C22.0074 28.0832 22.0063 28.0832 22.0049 28.0832C22.0021 28.0832 21.9977 28.0832 21.992 28.0832C21.9804 28.0832 21.9631 28.0831 21.9403 28.0831C21.8947 28.083 21.8274 28.0828 21.741 28.0824C21.5681 28.0816 21.3189 28.0799 21.0148 28.0766C20.4063 28.07 19.5799 28.0569 18.7064 28.0306C17.8312 28.0043 16.917 27.9651 16.1303 27.907C15.3149 27.8467 14.7221 27.7714 14.4384 27.6942L13.9128 29.6239ZM22.0089 29.0832C22.0089 30.0832 22.009 30.0832 22.0091 30.0832C22.0091 30.0832 22.0092 30.0832 22.0093 30.0832C22.0096 30.0832 22.0099 30.0832 22.0103 30.0832C22.0112 30.0832 22.0124 30.0832 22.014 30.0832C22.0172 30.0832 22.0219 30.0832 22.028 30.0832C22.0403 30.0832 22.0583 30.0831 22.0818 30.0831C22.1288 30.083 22.1977 30.0828 22.2856 30.0824C22.4616 30.0815 22.7142 30.0798 23.0221 30.0765C23.6376 30.0698 24.4757 30.0565 25.3647 30.0297C26.2521 30.003 27.1983 29.9627 28.0271 29.9015C28.8281 29.8424 29.6043 29.7587 30.1022 29.6247L29.5823 27.6934C29.2923 27.7715 28.6953 27.8468 27.8799 27.907C27.0923 27.9651 26.1785 28.0043 25.3046 28.0306C24.4322 28.0569 23.6075 28.07 23.0004 28.0766C22.6971 28.0799 22.4485 28.0816 22.2761 28.0824C22.1899 28.0828 22.1228 28.083 22.0773 28.0831C22.0546 28.0831 22.0373 28.0832 22.0258 28.0832C22.0201 28.0832 22.0158 28.0832 22.0129 28.0832C22.0115 28.0832 22.0105 28.0832 22.0098 28.0832C22.0095 28.0832 22.0092 28.0832 22.0091 28.0832C22.009 28.0832 22.009 28.0832 22.0089 28.0832C22.0089 28.0832 22.0089 28.0832 22.0089 29.0832ZM30.1205 29.6195C31.2988 29.2782 32.21 28.3557 32.5412 27.1844L30.6166 26.6403C30.4728 27.149 30.0774 27.5498 29.564 27.6985L30.1205 29.6195ZM32.5517 27.144L32.5559 27.1265L30.6103 26.6633L30.6061 26.6808L32.5517 27.144ZM32.566 27.0789C32.8431 25.5992 32.9998 23.9091 32.9998 22.1882H30.9998C30.9998 23.794 30.8531 25.3605 30.6002 26.7108L32.566 27.0789ZM32.9998 22.1882C32.9998 22.1285 32.9998 22.06 32.9988 21.9905L30.999 22.0175C30.9997 22.0713 30.9998 22.1262 30.9998 22.1882H32.9998ZM32.9988 22.0187C32.9998 21.9532 32.9998 21.8777 32.9998 21.8124H30.9998C30.9998 21.882 30.9997 21.9415 30.999 21.9893L32.9988 22.0187ZM32.9998 21.8124C32.9998 20.0873 32.8425 18.3984 32.5407 16.7596L30.5738 17.1218C30.8537 18.6414 30.9998 20.2091 30.9998 21.8124H32.9998ZM21.0064 23.3047V20.7051H19.0064V23.3047H21.0064ZM21.0064 20.7051L23.2399 22.0069L24.247 20.2789L22.0135 18.9772L21.0064 20.7051ZM23.2399 22.0069L21.0064 23.3047L22.0113 25.034L24.2448 23.7361L23.2399 22.0069ZM23.2399 22.0069L23.2399 22.0069L24.2448 23.7361C25.5707 22.9657 25.5719 21.0511 24.247 20.2789L23.2399 22.0069ZM21.0064 20.7051V20.7051L22.0135 18.9772C20.6802 18.2001 19.0064 19.1619 19.0064 20.7051H21.0064ZM19.0064 23.3047C19.0064 24.8468 20.6779 25.8087 22.0113 25.034L21.0064 23.3047L21.0064 23.3047H19.0064Z" fill="white" mask="url(#path-1-inside-1_826_26732)"/>
</svg>
