<svg width="44" height="44" viewBox="0 0 44 44" fill="none" xmlns="http://www.w3.org/2000/svg">
<path d="M26.5501 29.1225L26.3924 28.648C26.1785 28.7191 23.8636 29.3245 20.8358 29.0619L20.5763 29.0394L20.4092 29.2391C20.3036 29.3651 20.2036 29.4848 20.1087 29.5982C19.3545 30.5003 18.9244 31.0147 18.6187 31.2988C18.4506 31.455 18.369 31.4932 18.3377 31.503C18.3372 31.5031 18.3367 31.5033 18.3361 31.5035C18.3267 31.5066 18.3062 31.5134 18.2242 31.4869L18.2202 31.4856C18.2145 31.4838 18.1584 31.4623 18.1134 31.2866C18.0945 31.2126 18.0854 31.1375 18.0815 31.0787C18.0796 31.0501 18.079 31.0275 18.0789 31.0132L18.0789 30.9994L18.0789 30.9991C18.079 30.9987 18.0789 30.9988 18.0789 30.9986C18.079 30.9982 18.079 30.9976 18.079 30.9977L18.0792 30.9917L18.0792 30.9827L18.0834 28.9669L18.0844 28.4659H17.6519C15.6256 27.8524 14.6272 26.4708 14.1265 24.9013C13.611 23.2853 13.6348 21.4996 13.6616 20.1928C13.7141 17.6381 14.1938 15.7045 15.4354 14.4145C16.121 13.767 17.1489 13.2741 18.3865 12.9486C19.6226 12.6234 21.0314 12.4747 22.434 12.4901C23.8364 12.5055 25.2164 12.6847 26.3937 13.0048C27.4782 13.2996 28.3505 13.7031 28.9177 14.1743L29.0814 14.3216C30.4838 15.5839 31.3917 18.5325 30.7994 23.5185L30.7993 23.519C30.5285 25.8177 29.5692 27.0241 28.6494 27.6912C27.8859 28.245 27.1515 28.4406 26.6858 28.5646C26.5696 28.5955 26.4702 28.622 26.3912 28.6484L26.5501 29.1225ZM26.5501 29.1225C26.606 29.1038 26.6853 29.083 26.7836 29.0571C27.7864 28.7937 30.7738 28.0088 31.2959 23.5775L13.1617 20.1825C13.1084 22.78 13.0451 27.6459 17.5792 28.9659H17.5834V29.4659H17.5824L17.5792 30.9817M26.5501 29.1225C26.2792 29.2125 23.8959 29.8292 20.7926 29.56C20.6844 29.6893 20.5816 29.8123 20.4838 29.9293C18.9041 31.819 18.6319 32.1446 18.0701 31.9625C17.5484 31.7984 17.5792 30.9817 17.5792 30.9817M17.5792 30.9817L18.0789 31.0006L18.0789 31.0003C18.0789 31.0004 18.0789 31.0006 17.5792 30.9817ZM30.1207 13.9524C31.6506 15.6809 32.3502 18.9413 31.7924 23.6365C31.4899 26.2033 30.3896 27.6644 29.2366 28.5007C28.2921 29.1857 27.3058 29.44 26.8823 29.5492C26.804 29.5693 26.745 29.5846 26.7089 29.5966L26.7077 29.597C26.389 29.7029 24.0617 30.2997 21.0104 30.0789C20.9596 30.1396 20.91 30.199 20.8615 30.2571C20.1317 31.1304 19.6549 31.701 19.2995 32.0313C19.0936 32.2227 18.8798 32.3816 18.6347 32.4579C18.3678 32.5409 18.1288 32.5069 17.9176 32.4387L30.1207 13.9524ZM30.1207 13.9524L30.1326 13.9405L29.8859 13.7056" stroke="white"/>
<path d="M22.185 15.5808C21.8641 15.5808 21.8641 16.0808 22.185 16.085C24.6741 16.1041 26.7241 17.8391 26.7466 21.0216C26.7466 21.3575 27.2383 21.3533 27.2341 21.0175H27.2333C27.2066 17.5883 24.9683 15.6 22.185 15.5808V15.5808Z" fill="white"/>
<path d="M25.4594 20.4942C25.4519 20.8259 25.9428 20.8417 25.947 20.5059C25.9878 18.615 24.8219 17.0575 22.6311 16.8934C22.3103 16.87 22.2769 17.3742 22.5969 17.3975C24.4969 17.5417 25.4978 18.8384 25.4594 20.4942V20.4942Z" fill="white"/>
<path d="M19.8557 20.1725C19.3576 20.2157 19.3575 20.2155 19.3575 20.2153L19.3575 20.215L19.3574 20.2143L19.3573 20.2127L19.357 20.2092L19.3564 20.2004C19.356 20.1938 19.3556 20.1857 19.3552 20.1763C19.3545 20.1576 19.354 20.1331 19.3546 20.1043C19.3557 20.0473 19.3608 19.9685 19.3775 19.8791C19.409 19.7101 19.4935 19.4419 19.7356 19.241L19.7362 19.2406L20.1895 18.8656L20.1972 18.8592L20.1972 18.8593C20.2044 18.8536 20.2423 18.8125 20.2583 18.7292C20.2724 18.6556 20.2666 18.5593 20.2087 18.4516C19.7697 17.6588 19.4639 17.2871 19.23 17.0028C19.1484 16.9035 19.0755 16.8149 19.0088 16.7228C18.9683 16.6749 18.9359 16.6638 18.916 16.6603C18.8921 16.6561 18.8355 16.655 18.7419 16.7056L18.6778 16.7403C18.3825 16.9233 18.096 17.1656 17.9071 17.4251C17.714 17.6905 17.6601 17.9162 17.7076 18.1088C17.7886 18.2754 17.8771 18.4862 17.9799 18.7309C18.4828 19.9285 19.3267 21.9383 21.3014 23.5529L21.3026 23.5539C21.8652 24.0169 22.6036 24.4945 23.3044 24.8863C24.013 25.2824 24.6411 25.5673 24.9832 25.6664L25.1205 25.7062C25.27 25.7173 25.4482 25.6581 25.6635 25.4902C25.9182 25.2915 26.1575 24.9869 26.337 24.6739L26.3608 24.6268C26.4128 24.5234 26.4147 24.4549 26.4089 24.4191C26.4038 24.3872 26.3884 24.3516 26.3419 24.3124L26.328 24.3007L26.315 24.288C25.8838 23.8676 25.2133 23.3873 24.6828 23.0773C24.4904 22.9663 24.3528 23.0583 24.3317 23.0866L24.3256 23.0949L24.3255 23.0949L23.963 23.564L23.963 23.5641C23.769 23.8151 23.5047 23.9067 23.3325 23.9413C23.2427 23.9593 23.1637 23.9649 23.1064 23.9661C23.0774 23.9667 23.0527 23.9663 23.0337 23.9655C23.0242 23.9651 23.0159 23.9646 23.0092 23.9642L23.0001 23.9635L22.9964 23.9632L22.9947 23.963L22.9939 23.963L22.9936 23.9629C22.9934 23.9629 22.9932 23.9629 23.039 23.465L22.9932 23.9629L22.9516 23.9591L22.9112 23.9484C21.4982 23.5747 20.6114 22.6487 20.0865 21.8425C19.8236 21.4388 19.6469 21.0587 19.5353 20.7785C19.4794 20.638 19.4394 20.5215 19.413 20.4383C19.3997 20.3967 19.3898 20.3633 19.383 20.3392L19.375 20.3103L19.3726 20.3014L19.3718 20.2984L19.3715 20.2972L19.3714 20.2967C19.3713 20.2965 19.3713 20.2963 19.8557 20.1725ZM19.8557 20.1725L19.3576 20.2157L19.3611 20.2565L19.3713 20.2963L19.8557 20.1725Z" stroke="white"/>
<path d="M22.9741 18.7532C23.775 18.7999 24.1633 19.2182 24.205 20.0774C24.22 20.4132 24.7074 20.3899 24.6924 20.0541C24.6391 18.9324 24.0541 18.3074 23.0008 18.2491C22.68 18.2299 22.65 18.7341 22.9741 18.7532V18.7532Z" fill="white"/>
</svg>
