<svg width="44" height="44" viewBox="0 0 44 44" fill="none" xmlns="http://www.w3.org/2000/svg">
<path d="M26.9482 10.0754C24.7402 9.97239 19.2712 9.97739 17.0612 10.0754C15.1192 10.1664 13.4062 10.6354 12.0252 12.0164C9.71723 14.3244 10.0122 17.4344 10.0122 21.9954C10.0122 26.6633 9.75223 29.7013 12.0252 31.9743C14.3422 34.2903 17.4972 33.9873 22.0042 33.9873C26.6282 33.9873 28.2242 33.9903 29.8592 33.3573C32.0822 32.4943 33.7602 30.5073 33.9242 26.9383C34.0282 24.7293 34.0222 19.2614 33.9242 17.0514C33.7262 12.8384 31.4652 10.2834 26.9482 10.0754ZM30.4432 30.4473C28.9302 31.9603 26.8312 31.8253 21.9752 31.8253C16.9752 31.8253 14.9702 31.8993 13.5072 30.4323C11.8222 28.7553 12.1272 26.0623 12.1272 21.9794C12.1272 16.4544 11.5602 12.4754 17.1052 12.1914C17.1245 12.1907 17.1437 12.19 17.1626 12.1894C18.3912 12.1459 18.8029 12.1314 21.9612 12.1314L22.0062 12.1614C27.3352 12.1614 31.5162 11.6034 31.7672 17.1474C31.8242 18.4124 31.8372 18.7924 31.8372 21.9944C31.8362 26.9363 31.9302 28.9533 30.4432 30.4473Z" fill="white"/>
<path d="M30.4432 30.4473C28.9302 31.9603 26.8312 31.8253 21.9752 31.8253C16.9752 31.8253 14.9702 31.8993 13.5072 30.4323C11.8222 28.7553 12.1272 26.0623 12.1272 21.9794C12.1272 16.4544 11.5602 12.4754 17.1052 12.1914L17.1626 12.1894C18.3912 12.1459 18.8029 12.1314 21.9612 12.1314L22.0062 12.1614C27.3352 12.1614 31.5162 11.6034 31.7672 17.1474C31.8242 18.4124 31.8372 18.7924 31.8372 21.9944C31.8362 26.9363 31.9302 28.9533 30.4432 30.4473Z" fill="white"/>
<path d="M22.0038 26.4931C19.5186 26.4931 17.5068 24.4802 17.5068 21.9961C17.5068 19.512 19.5197 17.4991 22.0038 17.4991C24.4879 17.4991 26.5007 19.5119 26.5008 21.9959L22.0038 26.4931ZM22.0038 26.4931C24.4888 26.4931 26.5018 24.4805 26.5008 21.9961L22.0038 26.4931Z" fill="#090102" stroke="#090102"/>
<path d="M28.4058 17.5341C29.4767 17.5341 30.3448 16.666 30.3448 15.5951C30.3448 14.5242 29.4767 13.6561 28.4058 13.6561C27.3349 13.6561 26.4668 14.5242 26.4668 15.5951C26.4668 16.666 27.3349 17.5341 28.4058 17.5341Z" fill="#090102" stroke="#090102"/>
</svg>
