<svg width="80" height="16" viewBox="0 0 80 16" fill="none" xmlns="http://www.w3.org/2000/svg">
<path d="M12.9739 6.77888C12.9085 6.56758 12.7289 6.41751 12.5164 6.39753L9.6301 6.12405L8.48879 3.33653C8.40464 3.13224 8.21298 3 8.00004 3C7.7871 3 7.59544 3.13224 7.51129 3.33701L6.36998 6.12405L3.48326 6.39753C3.27115 6.41799 3.09201 6.56758 3.02617 6.77888C2.96032 6.99018 3.02113 7.22193 3.18158 7.36802L5.36326 9.36458L4.71993 12.3217C4.67286 12.5391 4.75373 12.7639 4.92662 12.8943C5.01955 12.9643 5.12827 13 5.23791 13C5.33244 13 5.4262 12.9734 5.51036 12.9209L8.00004 11.3682L10.4888 12.9209C10.6709 13.0352 10.9005 13.0248 11.073 12.8943C11.246 12.7635 11.3268 12.5386 11.2797 12.3217L10.6364 9.36458L12.818 7.36842C12.9785 7.22193 13.0398 6.99057 12.9739 6.77888Z" fill="#FFC107"/>
<path d="M28.9739 6.77888C28.9085 6.56758 28.7289 6.41751 28.5164 6.39753L25.6301 6.12405L24.4888 3.33653C24.4046 3.13224 24.213 3 24 3C23.7871 3 23.5954 3.13224 23.5113 3.33701L22.37 6.12405L19.4833 6.39753C19.2712 6.41799 19.092 6.56758 19.0262 6.77888C18.9603 6.99018 19.0211 7.22193 19.1816 7.36802L21.3633 9.36458L20.7199 12.3217C20.6729 12.5391 20.7537 12.7639 20.9266 12.8943C21.0195 12.9643 21.1283 13 21.2379 13C21.3324 13 21.4262 12.9734 21.5104 12.9209L24 11.3682L26.4888 12.9209C26.6709 13.0352 26.9005 13.0248 27.073 12.8943C27.246 12.7635 27.3268 12.5386 27.2797 12.3217L26.6364 9.36458L28.818 7.36842C28.9785 7.22193 29.0398 6.99057 28.9739 6.77888Z" fill="#FFC107"/>
<path d="M44.9739 6.77888C44.9085 6.56758 44.7289 6.41751 44.5164 6.39753L41.6301 6.12405L40.4888 3.33653C40.4046 3.13224 40.213 3 40 3C39.7871 3 39.5954 3.13224 39.5113 3.33701L38.37 6.12405L35.4833 6.39753C35.2712 6.41799 35.092 6.56758 35.0262 6.77888C34.9603 6.99018 35.0211 7.22193 35.1816 7.36802L37.3633 9.36458L36.7199 12.3217C36.6729 12.5391 36.7537 12.7639 36.9266 12.8943C37.0195 12.9643 37.1283 13 37.2379 13C37.3324 13 37.4262 12.9734 37.5104 12.9209L40 11.3682L42.4888 12.9209C42.6709 13.0352 42.9005 13.0248 43.073 12.8943C43.246 12.7635 43.3268 12.5386 43.2797 12.3217L42.6364 9.36458L44.818 7.36842C44.9785 7.22193 45.0398 6.99057 44.9739 6.77888Z" fill="#FFC107"/>
<path d="M60.9739 6.77888C60.9085 6.56758 60.7289 6.41751 60.5164 6.39753L57.6301 6.12405L56.4888 3.33653C56.4046 3.13224 56.213 3 56 3C55.7871 3 55.5954 3.13224 55.5113 3.33701L54.37 6.12405L51.4833 6.39753C51.2712 6.41799 51.092 6.56758 51.0262 6.77888C50.9603 6.99018 51.0211 7.22193 51.1816 7.36802L53.3633 9.36458L52.7199 12.3217C52.6729 12.5391 52.7537 12.7639 52.9266 12.8943C53.0195 12.9643 53.1283 13 53.2379 13C53.3324 13 53.4262 12.9734 53.5104 12.9209L56 11.3682L58.4888 12.9209C58.6709 13.0352 58.9005 13.0248 59.073 12.8943C59.246 12.7635 59.3268 12.5386 59.2797 12.3217L58.6364 9.36458L60.818 7.36842C60.9785 7.22193 61.0398 6.99057 60.9739 6.77888Z" fill="#FFC107"/>
<path d="M76.9739 6.77888C76.9085 6.56758 76.7289 6.41751 76.5164 6.39753L73.6301 6.12405L72.4888 3.33653C72.4046 3.13224 72.213 3 72 3C71.7871 3 71.5954 3.13224 71.5113 3.33701L70.37 6.12405L67.4833 6.39753C67.2712 6.41799 67.092 6.56758 67.0262 6.77888C66.9603 6.99018 67.0211 7.22193 67.1816 7.36802L69.3633 9.36458L68.7199 12.3217C68.6729 12.5391 68.7537 12.7639 68.9266 12.8943C69.0195 12.9643 69.1283 13 69.2379 13C69.3324 13 69.4262 12.9734 69.5104 12.9209L72 11.3682L74.4888 12.9209C74.6709 13.0352 74.9005 13.0248 75.073 12.8943C75.246 12.7635 75.3268 12.5386 75.2797 12.3217L74.6364 9.36458L76.818 7.36842C76.9785 7.22193 77.0398 6.99057 76.9739 6.77888Z" fill="#FFC107"/>
</svg>
