<svg width="60" height="12" viewBox="0 0 60 12" fill="none" xmlns="http://www.w3.org/2000/svg">
<path d="M9.9791 5.02309C9.92674 4.85405 9.78306 4.73399 9.61307 4.71801L7.30406 4.49923L6.39102 2.26922C6.3237 2.10579 6.17037 2 6.00002 2C5.82967 2 5.67634 2.10579 5.60902 2.2696L4.69598 4.49923L2.3866 4.71801C2.21692 4.73438 2.07361 4.85405 2.02093 5.02309C1.96826 5.19212 2.01691 5.37753 2.14527 5.4944L3.8906 7.09164L3.37594 9.45731C3.33828 9.63125 3.40298 9.81105 3.54129 9.91538C3.61563 9.97142 3.70261 9.99996 3.79032 9.99996C3.86594 9.99996 3.94096 9.97868 4.00828 9.93665L6.00002 8.69448L7.99103 9.93665C8.13672 10.0281 8.32038 10.0198 8.45838 9.91538C8.59675 9.81073 8.66139 9.63087 8.62373 9.45731L8.10907 7.09164L9.85441 5.49472C9.98277 5.37753 10.0318 5.19244 9.9791 5.02309Z" fill="#FFC107"/>
<path d="M21.9791 5.02309C21.9267 4.85405 21.7831 4.73399 21.6131 4.71801L19.3041 4.49923L18.391 2.26922C18.3237 2.10579 18.1704 2 18 2C17.8297 2 17.6763 2.10579 17.609 2.2696L16.696 4.49923L14.3866 4.71801C14.2169 4.73438 14.0736 4.85405 14.0209 5.02309C13.9683 5.19212 14.0169 5.37753 14.1453 5.4944L15.8906 7.09164L15.3759 9.45731C15.3383 9.63125 15.403 9.81105 15.5413 9.91538C15.6156 9.97142 15.7026 9.99996 15.7903 9.99996C15.8659 9.99996 15.941 9.97868 16.0083 9.93665L18 8.69448L19.991 9.93665C20.1367 10.0281 20.3204 10.0198 20.4584 9.91538C20.5968 9.81073 20.6614 9.63087 20.6237 9.45731L20.1091 7.09164L21.8544 5.49472C21.9828 5.37753 22.0318 5.19244 21.9791 5.02309Z" fill="#FFC107"/>
<path d="M33.9791 5.02309C33.9267 4.85405 33.7831 4.73399 33.6131 4.71801L31.3041 4.49923L30.391 2.26922C30.3237 2.10579 30.1704 2 30 2C29.8297 2 29.6763 2.10579 29.609 2.2696L28.696 4.49923L26.3866 4.71801C26.2169 4.73438 26.0736 4.85405 26.0209 5.02309C25.9683 5.19212 26.0169 5.37753 26.1453 5.4944L27.8906 7.09164L27.3759 9.45731C27.3383 9.63125 27.403 9.81105 27.5413 9.91538C27.6156 9.97142 27.7026 9.99996 27.7903 9.99996C27.8659 9.99996 27.941 9.97868 28.0083 9.93665L30 8.69448L31.991 9.93665C32.1367 10.0281 32.3204 10.0198 32.4584 9.91538C32.5968 9.81073 32.6614 9.63087 32.6237 9.45731L32.1091 7.09164L33.8544 5.49472C33.9828 5.37753 34.0318 5.19244 33.9791 5.02309Z" fill="#FFC107"/>
<path d="M45.9791 5.02309C45.9267 4.85405 45.7831 4.73399 45.6131 4.71801L43.3041 4.49923L42.391 2.26922C42.3237 2.10579 42.1704 2 42 2C41.8297 2 41.6763 2.10579 41.609 2.2696L40.696 4.49923L38.3866 4.71801C38.2169 4.73438 38.0736 4.85405 38.0209 5.02309C37.9683 5.19212 38.0169 5.37753 38.1453 5.4944L39.8906 7.09164L39.3759 9.45731C39.3383 9.63125 39.403 9.81105 39.5413 9.91538C39.6156 9.97142 39.7026 9.99996 39.7903 9.99996C39.8659 9.99996 39.941 9.97868 40.0083 9.93665L42 8.69448L43.991 9.93665C44.1367 10.0281 44.3204 10.0198 44.4584 9.91538C44.5968 9.81073 44.6614 9.63087 44.6237 9.45731L44.1091 7.09164L45.8544 5.49472C45.9828 5.37753 46.0318 5.19244 45.9791 5.02309Z" fill="#FFC107"/>
<path d="M57.9791 5.02309C57.9267 4.85405 57.7831 4.73399 57.6131 4.71801L55.3041 4.49923L54.391 2.26922C54.3237 2.10579 54.1704 2 54 2C53.8297 2 53.6763 2.10579 53.609 2.2696L52.696 4.49923L50.3866 4.71801C50.2169 4.73438 50.0736 4.85405 50.0209 5.02309C49.9683 5.19212 50.0169 5.37753 50.1453 5.4944L51.8906 7.09164L51.3759 9.45731C51.3383 9.63125 51.403 9.81105 51.5413 9.91538C51.6156 9.97142 51.7026 9.99996 51.7903 9.99996C51.8659 9.99996 51.941 9.97868 52.0083 9.93665L54 8.69448L55.991 9.93665C56.1367 10.0281 56.3204 10.0198 56.4584 9.91538C56.5968 9.81073 56.6614 9.63087 56.6237 9.45731L56.1091 7.09164L57.8544 5.49472C57.9828 5.37753 58.0318 5.19244 57.9791 5.02309Z" fill="#FFC107"/>
</svg>
