<svg width="80" height="16" viewBox="0 0 80 16" fill="none" xmlns="http://www.w3.org/2000/svg">
<path d="M12.4963 6.92685L12.4965 6.92738C12.5061 6.95848 12.4946 6.98666 12.4809 6.99917L12.4805 6.99953L10.2988 8.9957L10.0867 9.18984L10.1478 9.47087L10.7911 12.4277C10.7983 12.4612 10.7835 12.4863 10.7714 12.4955L10.7714 12.4955C10.7684 12.4978 10.7662 12.4988 10.7649 12.4992C10.7635 12.4997 10.7625 12.4999 10.7618 12.4999C10.7611 12.4999 10.7603 12.4999 10.7594 12.4996C10.7586 12.4994 10.757 12.4989 10.7546 12.4974L10.7535 12.4967L8.2647 10.9439L8.00009 10.7789L7.73545 10.9439L5.24577 12.4966L5.24554 12.4967C5.24222 12.4988 5.24013 12.4995 5.23934 12.4998L5.23791 12.5C5.23746 12.5 5.23674 12.5 5.23552 12.4995C5.23436 12.4991 5.23168 12.4981 5.22772 12.4951C5.21643 12.4866 5.2012 12.4619 5.20859 12.4276C5.2086 12.4276 5.2086 12.4275 5.20861 12.4275L5.85183 9.47087L5.91296 9.18987L5.70082 8.99573L3.51914 6.99917L3.51821 6.99832C3.51245 6.99307 3.5061 6.98412 3.50252 6.97055C3.49893 6.95691 3.49909 6.94187 3.50353 6.92763C3.50799 6.91332 3.51498 6.90491 3.52023 6.90053C3.52522 6.89636 3.52885 6.89547 3.53115 6.89523C3.53119 6.89523 3.53123 6.89522 3.53127 6.89522L6.41714 6.62183L6.71812 6.59331L6.83269 6.31353L7.97376 3.52707C7.97378 3.52701 7.97381 3.52694 7.97383 3.52688C7.97939 3.51346 7.98661 3.50651 7.99124 3.50332C7.99569 3.50025 7.9984 3.5 8.00004 3.5C8.0017 3.5 8.00449 3.50026 8.00904 3.5034C8.01376 3.50665 8.0209 3.51357 8.02636 3.52668C8.0264 3.52678 8.02644 3.52688 8.02648 3.52697L9.16738 6.31351L9.28194 6.59331L9.58293 6.62183L12.4692 6.8953L12.4696 6.89533C12.4715 6.89551 12.475 6.89623 12.48 6.90043C12.4852 6.90479 12.492 6.91304 12.4963 6.92685Z" stroke="#FFC107"/>
<path d="M28.4963 6.92685L28.4965 6.92738C28.5061 6.95848 28.4946 6.98666 28.4809 6.99917L28.4805 6.99953L26.2988 8.9957L26.0867 9.18984L26.1478 9.47087L26.7911 12.4277C26.7983 12.4612 26.7835 12.4863 26.7714 12.4955L26.7714 12.4955C26.7684 12.4978 26.7662 12.4988 26.7649 12.4992C26.7635 12.4997 26.7625 12.4999 26.7618 12.4999C26.7611 12.4999 26.7603 12.4999 26.7594 12.4996C26.7586 12.4994 26.757 12.4989 26.7546 12.4974L26.7535 12.4967L24.2647 10.9439L24.0001 10.7789L23.7354 10.9439L21.2458 12.4966L21.2455 12.4967C21.2422 12.4988 21.2401 12.4995 21.2393 12.4998L21.2379 12.5C21.2375 12.5 21.2367 12.5 21.2355 12.4995C21.2344 12.4991 21.2317 12.4981 21.2277 12.4951C21.2164 12.4866 21.2012 12.4619 21.2086 12.4276C21.2086 12.4276 21.2086 12.4275 21.2086 12.4275L21.8518 9.47087L21.913 9.18987L21.7008 8.99573L19.5191 6.99917L19.5182 6.99832C19.5124 6.99307 19.5061 6.98412 19.5025 6.97055C19.4989 6.95691 19.4991 6.94187 19.5035 6.92763C19.508 6.91332 19.515 6.90491 19.5202 6.90053C19.5252 6.89636 19.5289 6.89547 19.5312 6.89523C19.5312 6.89523 19.5312 6.89522 19.5313 6.89522L22.4171 6.62183L22.7181 6.59331L22.8327 6.31353L23.9738 3.52707C23.9738 3.52701 23.9738 3.52694 23.9738 3.52688C23.9794 3.51346 23.9866 3.50651 23.9912 3.50332C23.9957 3.50025 23.9984 3.5 24 3.5C24.0017 3.5 24.0045 3.50026 24.009 3.5034C24.0138 3.50665 24.0209 3.51357 24.0264 3.52668C24.0264 3.52678 24.0264 3.52688 24.0265 3.52697L25.1674 6.31351L25.2819 6.59331L25.5829 6.62183L28.4692 6.8953L28.4696 6.89533C28.4715 6.89551 28.475 6.89623 28.48 6.90043C28.4852 6.90479 28.492 6.91304 28.4963 6.92685Z" stroke="#FFC107"/>
<path d="M44.4963 6.92685L44.4965 6.92738C44.5061 6.95848 44.4946 6.98666 44.4809 6.99917L44.4805 6.99953L42.2988 8.9957L42.0867 9.18984L42.1478 9.47087L42.7911 12.4277C42.7983 12.4612 42.7835 12.4863 42.7714 12.4955L42.7714 12.4955C42.7684 12.4978 42.7662 12.4988 42.7649 12.4992C42.7635 12.4997 42.7625 12.4999 42.7618 12.4999C42.7611 12.4999 42.7603 12.4999 42.7594 12.4996C42.7586 12.4994 42.757 12.4989 42.7546 12.4974L42.7535 12.4967L40.2647 10.9439L40.0001 10.7789L39.7354 10.9439L37.2458 12.4966L37.2455 12.4967C37.2422 12.4988 37.2401 12.4995 37.2393 12.4998L37.2379 12.5C37.2375 12.5 37.2367 12.5 37.2355 12.4995C37.2344 12.4991 37.2317 12.4981 37.2277 12.4951C37.2164 12.4866 37.2012 12.4619 37.2086 12.4276C37.2086 12.4276 37.2086 12.4275 37.2086 12.4275L37.8518 9.47087L37.913 9.18987L37.7008 8.99573L35.5191 6.99917L35.5182 6.99832C35.5124 6.99307 35.5061 6.98412 35.5025 6.97055C35.4989 6.95691 35.4991 6.94187 35.5035 6.92763C35.508 6.91332 35.515 6.90491 35.5202 6.90053C35.5252 6.89636 35.5289 6.89547 35.5312 6.89523C35.5312 6.89523 35.5312 6.89522 35.5313 6.89522L38.4171 6.62183L38.7181 6.59331L38.8327 6.31353L39.9738 3.52707C39.9738 3.52701 39.9738 3.52694 39.9738 3.52688C39.9794 3.51346 39.9866 3.50651 39.9912 3.50332C39.9957 3.50025 39.9984 3.5 40 3.5C40.0017 3.5 40.0045 3.50026 40.009 3.5034C40.0138 3.50665 40.0209 3.51357 40.0264 3.52668C40.0264 3.52678 40.0264 3.52688 40.0265 3.52697L41.1674 6.31351L41.2819 6.59331L41.5829 6.62183L44.4692 6.8953L44.4696 6.89533C44.4715 6.89551 44.475 6.89623 44.48 6.90043C44.4852 6.90479 44.492 6.91304 44.4963 6.92685Z" stroke="#FFC107"/>
<path d="M60.4963 6.92685L60.4965 6.92738C60.5061 6.95848 60.4946 6.98666 60.4809 6.99917L60.4805 6.99953L58.2988 8.9957L58.0867 9.18984L58.1478 9.47087L58.7911 12.4277C58.7983 12.4612 58.7835 12.4863 58.7714 12.4955L58.7714 12.4955C58.7684 12.4978 58.7662 12.4988 58.7649 12.4992C58.7635 12.4997 58.7625 12.4999 58.7618 12.4999C58.7611 12.4999 58.7603 12.4999 58.7594 12.4996C58.7586 12.4994 58.757 12.4989 58.7546 12.4974L58.7535 12.4967L56.2647 10.9439L56.0001 10.7789L55.7354 10.9439L53.2458 12.4966L53.2455 12.4967C53.2422 12.4988 53.2401 12.4995 53.2393 12.4998L53.2379 12.5C53.2375 12.5 53.2367 12.5 53.2355 12.4995C53.2344 12.4991 53.2317 12.4981 53.2277 12.4951C53.2164 12.4866 53.2012 12.4619 53.2086 12.4276C53.2086 12.4276 53.2086 12.4275 53.2086 12.4275L53.8518 9.47087L53.913 9.18987L53.7008 8.99573L51.5191 6.99917L51.5182 6.99832C51.5124 6.99307 51.5061 6.98412 51.5025 6.97055C51.4989 6.95691 51.4991 6.94187 51.5035 6.92763C51.508 6.91332 51.515 6.90491 51.5202 6.90053C51.5252 6.89636 51.5289 6.89547 51.5312 6.89523C51.5312 6.89523 51.5312 6.89522 51.5313 6.89522L54.4171 6.62183L54.7181 6.59331L54.8327 6.31353L55.9738 3.52707C55.9738 3.52701 55.9738 3.52694 55.9738 3.52688C55.9794 3.51346 55.9866 3.50651 55.9912 3.50332C55.9957 3.50025 55.9984 3.5 56 3.5C56.0017 3.5 56.0045 3.50026 56.009 3.5034C56.0138 3.50665 56.0209 3.51357 56.0264 3.52668C56.0264 3.52678 56.0264 3.52688 56.0265 3.52697L57.1674 6.31351L57.2819 6.59331L57.5829 6.62183L60.4692 6.8953L60.4696 6.89533C60.4715 6.89551 60.475 6.89623 60.48 6.90043C60.4852 6.90479 60.492 6.91304 60.4963 6.92685Z" stroke="#FFC107"/>
<path d="M76.4963 6.92685L76.4965 6.92738C76.5061 6.95848 76.4946 6.98666 76.4809 6.99917L76.4805 6.99953L74.2988 8.9957L74.0867 9.18984L74.1478 9.47087L74.7911 12.4277C74.7983 12.4612 74.7835 12.4863 74.7714 12.4955L74.7714 12.4955C74.7684 12.4978 74.7662 12.4988 74.7649 12.4992C74.7635 12.4997 74.7625 12.4999 74.7618 12.4999C74.7611 12.4999 74.7603 12.4999 74.7594 12.4996C74.7586 12.4994 74.757 12.4989 74.7546 12.4974L74.7535 12.4967L72.2647 10.9439L72.0001 10.7789L71.7354 10.9439L69.2458 12.4966L69.2455 12.4967C69.2422 12.4988 69.2401 12.4995 69.2393 12.4998L69.2379 12.5C69.2375 12.5 69.2367 12.5 69.2355 12.4995C69.2344 12.4991 69.2317 12.4981 69.2277 12.4951C69.2164 12.4866 69.2012 12.4619 69.2086 12.4276C69.2086 12.4276 69.2086 12.4275 69.2086 12.4275L69.8518 9.47087L69.913 9.18987L69.7008 8.99573L67.5191 6.99917L67.5182 6.99832C67.5124 6.99307 67.5061 6.98412 67.5025 6.97055C67.4989 6.95691 67.4991 6.94187 67.5035 6.92763C67.508 6.91332 67.515 6.90491 67.5202 6.90053C67.5252 6.89636 67.5289 6.89547 67.5312 6.89523C67.5312 6.89523 67.5312 6.89522 67.5313 6.89522L70.4171 6.62183L70.7181 6.59331L70.8327 6.31353L71.9738 3.52707C71.9738 3.52701 71.9738 3.52694 71.9738 3.52688C71.9794 3.51346 71.9866 3.50651 71.9912 3.50332C71.9957 3.50025 71.9984 3.5 72 3.5C72.0017 3.5 72.0045 3.50026 72.009 3.5034C72.0138 3.50665 72.0209 3.51357 72.0264 3.52668C72.0264 3.52678 72.0264 3.52688 72.0265 3.52697L73.1674 6.31351L73.2819 6.59331L73.5829 6.62183L76.4692 6.8953L76.4696 6.89533C76.4715 6.89551 76.475 6.89623 76.48 6.90043C76.4852 6.90479 76.492 6.91304 76.4963 6.92685Z" stroke="#FFC107"/>
</svg>
