<svg width="12" height="11" viewBox="0 0 12 11" fill="none" xmlns="http://www.w3.org/2000/svg">
<path fill-rule="evenodd" clip-rule="evenodd" d="M1.625 1C1.59185 1 1.56005 1.01317 1.53661 1.03661C1.51317 1.06005 1.5 1.09185 1.5 1.125V7.375C1.5 7.444 1.556 7.5 1.625 7.5H2.875C2.97446 7.5 3.06984 7.53951 3.14017 7.60983C3.21049 7.68016 3.25 7.77554 3.25 7.875V9.47L5.11 7.61C5.18026 7.53965 5.27558 7.50009 5.375 7.5H10.375C10.4082 7.5 10.4399 7.48683 10.4634 7.46339C10.4868 7.43995 10.5 7.40815 10.5 7.375V1.125C10.5 1.09185 10.4868 1.06005 10.4634 1.03661C10.4399 1.01317 10.4082 1 10.375 1H1.625ZM0.75 1.125C0.75 0.642 1.142 0.25 1.625 0.25H10.375C10.858 0.25 11.25 0.642 11.25 1.125V7.375C11.25 7.60706 11.1578 7.82962 10.9937 7.99372C10.8296 8.15781 10.6071 8.25 10.375 8.25H5.53L3.7435 10.0365C3.64162 10.1383 3.51183 10.2077 3.37055 10.2358C3.22927 10.2639 3.08283 10.2494 2.94975 10.1943C2.81666 10.1392 2.70291 10.0459 2.62286 9.9261C2.5428 9.80634 2.50005 9.66555 2.5 9.5215V8.25H1.625C1.39294 8.25 1.17038 8.15781 1.00628 7.99372C0.842187 7.82962 0.75 7.60706 0.75 7.375V1.125Z" fill="#686464"/>
</svg>
