<svg width="44" height="44" viewBox="0 0 44 44" fill="none" xmlns="http://www.w3.org/2000/svg">
<mask id="path-1-inside-1_535_11714" fill="white">
<path d="M22 34C28.629 34 34 28.629 34 22C34 15.371 28.629 10 22 10C15.371 10 10 15.371 10 22C10 28.629 15.371 34 22 34ZM15.491 21.74L27.061 17.279C27.598 17.085 28.067 17.41 27.893 18.222C27.719 19.034 27.8959 18.2081 27.8959 18.2081L25.924 27.502C25.778 28.16 25.387 28.32 24.84 28.01L21.84 25.799L20.393 27.193C20.233 27.353 20.098 27.488 19.788 27.488L20.001 24.435L25.561 19.412C25.803 19.199 25.507 19.079 25.188 19.291L18.317 23.617L15.355 22.693C14.712 22.489 14.698 22.05 15.491 21.74Z"/>
</mask>
<path d="M22 34C28.629 34 34 28.629 34 22C34 15.371 28.629 10 22 10C15.371 10 10 15.371 10 22C10 28.629 15.371 34 22 34ZM15.491 21.74L27.061 17.279C27.598 17.085 28.067 17.41 27.893 18.222C27.719 19.034 27.8959 18.2081 27.8959 18.2081L25.924 27.502C25.778 28.16 25.387 28.32 24.84 28.01L21.84 25.799L20.393 27.193C20.233 27.353 20.098 27.488 19.788 27.488L20.001 24.435L25.561 19.412C25.803 19.199 25.507 19.079 25.188 19.291L18.317 23.617L15.355 22.693C14.712 22.489 14.698 22.05 15.491 21.74Z" fill="white"/>
<path d="M15.491 21.74L15.1312 20.8069L15.1269 20.8086L15.491 21.74ZM27.061 17.279L26.7212 16.3385L26.7112 16.3421L26.7012 16.346L27.061 17.279ZM27.893 18.222L28.8708 18.4315L27.893 18.222ZM27.8959 18.2081L28.8742 18.4156L26.9181 17.9986L27.8959 18.2081ZM25.924 27.502L26.9003 27.7186L26.9022 27.7096L25.924 27.502ZM24.84 28.01L24.2467 28.815L24.2949 28.8505L24.3469 28.88L24.84 28.01ZM21.84 25.799L22.4333 24.994L21.754 24.4933L21.1462 25.0788L21.84 25.799ZM20.393 27.193L19.6992 26.4728L19.6925 26.4793L19.6859 26.4859L20.393 27.193ZM19.788 27.488L18.7904 27.4184L18.7158 28.488H19.788V27.488ZM20.001 24.435L19.3306 23.693L19.0315 23.9632L19.0034 24.3654L20.001 24.435ZM25.561 19.412L24.9002 18.6613L24.8906 18.67L25.561 19.412ZM25.188 19.291L25.7208 20.1372L25.7312 20.1307L25.7415 20.1239L25.188 19.291ZM18.317 23.617L18.0192 24.5716L18.4595 24.709L18.8498 24.4632L18.317 23.617ZM15.355 22.693L15.0526 23.6462L15.0572 23.6476L15.355 22.693ZM22 35C29.1813 35 35 29.1813 35 22H33C33 28.0767 28.0767 33 22 33V35ZM35 22C35 14.8187 29.1813 9 22 9V11C28.0767 11 33 15.9233 33 22H35ZM22 9C14.8187 9 9 14.8187 9 22H11C11 15.9233 15.9233 11 22 11V9ZM9 22C9 29.1813 14.8187 35 22 35V33C15.9233 33 11 28.0767 11 22H9ZM15.8508 22.673L27.4208 18.212L26.7012 16.346L15.1312 20.807L15.8508 22.673ZM27.4008 18.2195C27.4105 18.216 27.3769 18.2307 27.3073 18.2212C27.2313 18.2109 27.1314 18.1729 27.0457 18.0894C26.8638 17.9122 26.9646 17.782 26.9152 18.0125L28.8708 18.4315C28.9954 17.85 28.9487 17.1513 28.4416 16.6571C27.9225 16.1512 27.2279 16.1555 26.7212 16.3385L27.4008 18.2195ZM26.9152 18.0125C26.8717 18.2155 26.8501 18.3161 26.8423 18.3527C26.8403 18.3621 26.8392 18.3669 26.8389 18.3683C26.838 18.3727 26.8394 18.3661 26.8406 18.3607C26.8428 18.3511 28.0273 17.6018 28.7994 18.7631C28.7978 18.7715 28.7957 18.7817 28.7954 18.7834C28.7952 18.7842 28.795 18.7854 28.7949 18.7858C28.7948 18.786 28.7947 18.7865 28.7947 18.7866C28.7946 18.7872 28.7945 18.7875 28.7945 18.7874C28.7946 18.787 28.7949 18.7859 28.7953 18.7836C28.7972 18.775 28.8014 18.7552 28.807 18.7289C28.8183 18.6765 28.835 18.5986 28.8488 18.5339C28.8558 18.5015 28.862 18.4724 28.8665 18.4514C28.8687 18.4409 28.8706 18.4325 28.8718 18.4266C28.8724 18.4237 28.8729 18.4214 28.8732 18.4199C28.8734 18.4191 28.8735 18.4185 28.8736 18.4181C28.8737 18.4179 28.8737 18.4178 28.8737 18.4177C28.8737 18.4176 28.8737 18.4176 28.8737 18.4176C28.8737 18.4176 28.8737 18.4175 28.8737 18.4175C28.8737 18.4175 28.8738 18.4175 27.8959 18.2081C26.9181 17.9986 26.9181 17.9986 26.9181 17.9986C26.9181 17.9986 26.9181 17.9986 26.9181 17.9986C26.9181 17.9987 26.9181 17.9987 26.9181 17.9987C26.9181 17.9988 26.918 17.999 26.918 17.9992C26.9179 17.9996 26.9178 18.0002 26.9176 18.0009C26.9173 18.0025 26.9168 18.0047 26.9162 18.0077C26.9149 18.0135 26.9131 18.022 26.9109 18.0325C26.9064 18.0535 26.9001 18.0826 26.8932 18.115C26.8793 18.1797 26.8626 18.2576 26.8514 18.3101C26.8458 18.3363 26.8415 18.3564 26.8396 18.3652C26.8391 18.3673 26.8387 18.3692 26.8385 18.3703C26.8385 18.3705 26.8383 18.3711 26.8382 18.3718C26.8381 18.372 26.838 18.3725 26.838 18.3728C26.8379 18.3732 26.8376 18.3744 26.8375 18.3751C26.8371 18.3769 26.8351 18.3871 26.8335 18.3955C27.6055 19.5568 28.79 18.8076 28.7922 18.7979C28.7926 18.7961 28.7932 18.7934 28.7934 18.7926C28.7935 18.7922 28.7937 18.7915 28.7937 18.7912C28.7938 18.7906 28.7939 18.7902 28.794 18.79C28.7941 18.7896 28.7942 18.7891 28.7942 18.7888C28.7947 18.7867 28.7959 18.7811 28.7978 18.772C28.8057 18.7352 28.8273 18.6345 28.8708 18.4315L26.9152 18.0125ZM26.9177 18.0005L24.9458 27.2944L26.9022 27.7096L28.8742 18.4156L26.9177 18.0005ZM24.9477 27.2854C24.9285 27.3721 24.9127 27.3869 24.9277 27.3634C24.9471 27.3332 25.006 27.2596 25.1198 27.2081C25.2342 27.1563 25.3321 27.1593 25.3757 27.1662C25.4109 27.1718 25.3986 27.1771 25.3331 27.14L24.3469 28.88C24.7376 29.1014 25.3344 29.3064 25.9449 29.0299C26.5513 28.7553 26.7994 28.173 26.9003 27.7186L24.9477 27.2854ZM25.4333 27.205L22.4333 24.994L21.2467 26.604L24.2467 28.815L25.4333 27.205ZM21.1462 25.0788L19.6992 26.4728L21.0868 27.9132L22.5338 26.5192L21.1462 25.0788ZM19.6859 26.4859C19.6649 26.5069 19.6509 26.5209 19.6378 26.5335C19.6255 26.5455 19.6183 26.552 19.6144 26.5555C19.6069 26.5621 19.6184 26.551 19.6443 26.5359C19.6729 26.5193 19.7065 26.505 19.741 26.4961C19.7738 26.4877 19.7922 26.488 19.788 26.488V28.488C20.1044 28.488 20.3915 28.4148 20.6492 28.2651C20.8732 28.135 21.0364 27.9639 21.1001 27.9001L19.6859 26.4859ZM20.7856 27.5576L20.9986 24.5046L19.0034 24.3654L18.7904 27.4184L20.7856 27.5576ZM20.6714 25.177L26.2314 20.154L24.8906 18.67L19.3306 23.693L20.6714 25.177ZM26.2217 20.1627C26.3483 20.0512 26.6335 19.7643 26.6491 19.3076C26.6698 18.7013 26.2314 18.3621 25.9238 18.2513C25.6453 18.151 25.38 18.174 25.1988 18.2141C24.9992 18.2583 24.8076 18.3431 24.6345 18.4581L25.7415 20.1239C25.7279 20.1329 25.6929 20.1532 25.631 20.1669C25.5875 20.1765 25.4408 20.2031 25.246 20.1329C25.1425 20.0957 24.9888 20.0166 24.8573 19.8548C24.7148 19.6794 24.6427 19.4594 24.6503 19.2392C24.6633 18.8583 24.8947 18.6663 24.9003 18.6613L26.2217 20.1627ZM24.6552 18.4448L17.7842 22.7708L18.8498 24.4632L25.7208 20.1372L24.6552 18.4448ZM18.6148 22.6624L15.6528 21.7384L15.0572 23.6476L18.0192 24.5716L18.6148 22.6624ZM15.6574 21.7398C15.5797 21.7152 15.611 21.7096 15.6789 21.7735C15.761 21.8508 15.9064 22.0502 15.8807 22.3436C15.8578 22.6048 15.7152 22.7331 15.7046 22.7425C15.6885 22.7565 15.7224 22.7232 15.8551 22.6714L15.1269 20.8086C14.8631 20.9118 14.6014 21.0496 14.385 21.2395C14.174 21.4248 13.9265 21.7337 13.8883 22.1689C13.8474 22.6363 14.0673 23.0031 14.3081 23.2298C14.5346 23.443 14.8088 23.5688 15.0526 23.6462L15.6574 21.7398Z" fill="white" mask="url(#path-1-inside-1_535_11714)"/>
</svg>
