<svg width="44" height="44" viewBox="0 0 44 44" fill="none" xmlns="http://www.w3.org/2000/svg">
<mask id="path-1-inside-1_535_11723" fill="white">
<path fill-rule="evenodd" clip-rule="evenodd" d="M30.632 12.3511C32.4571 14.0706 33.4689 17.8723 32.7855 23.894C32.1874 29.2068 28.7655 30.1478 27.6169 30.4637L27.6168 30.4637C27.5042 30.4946 27.4134 30.5196 27.3493 30.5421C27.0391 30.65 24.3091 31.3893 20.7544 31.0666L20.4006 31.5093C18.5912 33.775 18.2795 34.1654 17.6358 33.9471C17.0383 33.7503 17.0736 32.7711 17.0736 32.7711L17.0784 30.3543H17.0736C11.8799 28.7717 11.9525 22.9378 12.0136 19.8235C12.0746 16.7103 12.6321 14.1955 14.2147 12.482C17.7389 8.97911 27.6872 9.41373 30.633 12.3501L30.632 12.3511ZM22.185 15.5808C21.8641 15.5808 21.8641 16.0808 22.185 16.085C24.6741 16.1042 26.7241 17.8392 26.7466 21.0217C26.7466 21.3575 27.2383 21.3533 27.2341 21.0175H27.2333C27.2066 17.5883 24.9683 15.6 22.185 15.5808ZM25.947 20.5058C25.9428 20.8417 25.4519 20.8258 25.4594 20.4942C25.4978 18.8383 24.4969 17.5417 22.5969 17.3975C22.2769 17.3742 22.3103 16.87 22.6311 16.8933C24.8219 17.0575 25.9878 18.615 25.947 20.5058ZM20.0549 19.6258L20.5082 19.2508C20.7349 19.0708 20.8782 18.6375 20.6474 18.2117C20.1824 17.3716 19.8325 16.9465 19.5982 16.6618L19.5982 16.6617L19.5981 16.6617C19.5217 16.5688 19.4575 16.4909 19.4057 16.4183C19.184 16.1408 18.8507 16.0783 18.504 16.2658H18.4965C17.7757 16.6875 16.9865 17.4767 17.239 18.2892C17.3137 18.4377 17.3993 18.6426 17.5028 18.8906C17.9965 20.0728 18.8991 22.2345 20.9849 23.94C22.1707 24.9158 24.0474 25.9158 24.844 26.1467L24.8515 26.1583C25.6365 26.42 26.3999 25.6 26.8074 24.8575V24.8517C26.9882 24.4925 26.9282 24.1525 26.664 23.93C26.1957 23.4733 25.489 22.9692 24.934 22.645C24.5224 22.4067 24.1032 22.555 23.9299 22.7892L23.5674 23.2583C23.3832 23.4967 23.039 23.465 23.039 23.465C20.5274 22.8008 19.8557 20.1725 19.8557 20.1725C19.8557 20.1725 19.8249 19.8167 20.0549 19.6258ZM19.8557 20.1725L19.2795 20.3198L19.2794 20.3198L19.8557 20.1725ZM19.8557 20.1725L19.2286 20.2268L19.2286 20.2268L19.8557 20.1725ZM23.039 23.465L22.9791 24.1168L22.9791 24.1167L23.039 23.465ZM23.4918 24.4181L23.5484 24.4499C24.2486 24.8413 24.8365 25.1034 25.1223 25.1862L25.1774 25.2021C25.2099 25.1911 25.2705 25.1626 25.356 25.096C25.5212 24.9671 25.6947 24.7617 25.841 24.5289C25.4862 24.2081 24.9979 23.8552 24.5719 23.5937L24.3587 23.8697L24.3586 23.8698C24.0871 24.2212 23.7306 24.361 23.4918 24.4181ZM18.9238 19.6265C18.9884 19.3999 19.124 19.0988 19.4163 18.8562L19.4175 18.8553L19.7211 18.6041C19.3343 17.9175 19.0808 17.6096 18.8607 17.3424L18.8607 17.3424L18.795 17.2623C18.5983 17.4019 18.4251 17.563 18.3113 17.7193C18.2381 17.8199 18.2075 17.8938 18.1965 17.9369C18.194 17.947 18.1924 17.9552 18.1916 17.962C18.2739 18.1371 18.3607 18.3427 18.4574 18.5719L18.4574 18.5719C18.5896 18.8851 18.7404 19.2424 18.9238 19.6265ZM24.205 20.0775C24.1633 19.2183 23.775 18.8 22.9741 18.7533C22.65 18.7342 22.68 18.23 23.0008 18.2492C24.0541 18.3075 24.6391 18.9325 24.6924 20.0542C24.7074 20.39 24.22 20.4133 24.205 20.0775Z"/>
</mask>
<path fill-rule="evenodd" clip-rule="evenodd" d="M30.632 12.3511C32.4571 14.0706 33.4689 17.8723 32.7855 23.894C32.1874 29.2068 28.7655 30.1478 27.6169 30.4637L27.6168 30.4637C27.5042 30.4946 27.4134 30.5196 27.3493 30.5421C27.0391 30.65 24.3091 31.3893 20.7544 31.0666L20.4006 31.5093C18.5912 33.775 18.2795 34.1654 17.6358 33.9471C17.0383 33.7503 17.0736 32.7711 17.0736 32.7711L17.0784 30.3543H17.0736C11.8799 28.7717 11.9525 22.9378 12.0136 19.8235C12.0746 16.7103 12.6321 14.1955 14.2147 12.482C17.7389 8.97911 27.6872 9.41373 30.633 12.3501L30.632 12.3511ZM22.185 15.5808C21.8641 15.5808 21.8641 16.0808 22.185 16.085C24.6741 16.1042 26.7241 17.8392 26.7466 21.0217C26.7466 21.3575 27.2383 21.3533 27.2341 21.0175H27.2333C27.2066 17.5883 24.9683 15.6 22.185 15.5808ZM25.947 20.5058C25.9428 20.8417 25.4519 20.8258 25.4594 20.4942C25.4978 18.8383 24.4969 17.5417 22.5969 17.3975C22.2769 17.3742 22.3103 16.87 22.6311 16.8933C24.8219 17.0575 25.9878 18.615 25.947 20.5058ZM20.0549 19.6258L20.5082 19.2508C20.7349 19.0708 20.8782 18.6375 20.6474 18.2117C20.1824 17.3716 19.8325 16.9465 19.5982 16.6618L19.5982 16.6617L19.5981 16.6617C19.5217 16.5688 19.4575 16.4909 19.4057 16.4183C19.184 16.1408 18.8507 16.0783 18.504 16.2658H18.4965C17.7757 16.6875 16.9865 17.4767 17.239 18.2892C17.3137 18.4377 17.3993 18.6426 17.5028 18.8906C17.9965 20.0728 18.8991 22.2345 20.9849 23.94C22.1707 24.9158 24.0474 25.9158 24.844 26.1467L24.8515 26.1583C25.6365 26.42 26.3999 25.6 26.8074 24.8575V24.8517C26.9882 24.4925 26.9282 24.1525 26.664 23.93C26.1957 23.4733 25.489 22.9692 24.934 22.645C24.5224 22.4067 24.1032 22.555 23.9299 22.7892L23.5674 23.2583C23.3832 23.4967 23.039 23.465 23.039 23.465C20.5274 22.8008 19.8557 20.1725 19.8557 20.1725C19.8557 20.1725 19.8249 19.8167 20.0549 19.6258ZM19.8557 20.1725L19.2795 20.3198L19.2794 20.3198L19.8557 20.1725ZM19.8557 20.1725L19.2286 20.2268L19.2286 20.2268L19.8557 20.1725ZM23.039 23.465L22.9791 24.1168L22.9791 24.1167L23.039 23.465ZM23.4918 24.4181L23.5484 24.4499C24.2486 24.8413 24.8365 25.1034 25.1223 25.1862L25.1774 25.2021C25.2099 25.1911 25.2705 25.1626 25.356 25.096C25.5212 24.9671 25.6947 24.7617 25.841 24.5289C25.4862 24.2081 24.9979 23.8552 24.5719 23.5937L24.3587 23.8697L24.3586 23.8698C24.0871 24.2212 23.7306 24.361 23.4918 24.4181ZM18.9238 19.6265C18.9884 19.3999 19.124 19.0988 19.4163 18.8562L19.4175 18.8553L19.7211 18.6041C19.3343 17.9175 19.0808 17.6096 18.8607 17.3424L18.8607 17.3424L18.795 17.2623C18.5983 17.4019 18.4251 17.563 18.3113 17.7193C18.2381 17.8199 18.2075 17.8938 18.1965 17.9369C18.194 17.947 18.1924 17.9552 18.1916 17.962C18.2739 18.1371 18.3607 18.3427 18.4574 18.5719L18.4574 18.5719C18.5896 18.8851 18.7404 19.2424 18.9238 19.6265ZM24.205 20.0775C24.1633 19.2183 23.775 18.8 22.9741 18.7533C22.65 18.7342 22.68 18.23 23.0008 18.2492C24.0541 18.3075 24.6391 18.9325 24.6924 20.0542C24.7074 20.39 24.22 20.4133 24.205 20.0775Z" fill="white"/>
<path d="M32.7855 23.894L31.7919 23.7812L31.7918 23.7821L32.7855 23.894ZM30.632 12.3511L29.9093 11.66L29.213 12.3881L29.9463 13.079L30.632 12.3511ZM27.6169 30.4637L27.3517 29.4995L27.3336 29.5044L27.3157 29.5101L27.6169 30.4637ZM27.6168 30.4637L27.882 31.4279L27.9001 31.4229L27.918 31.4173L27.6168 30.4637ZM27.3493 30.5421L27.6778 31.4866L27.6803 31.4857L27.3493 30.5421ZM20.7544 31.0666L20.8448 30.0707L20.309 30.0221L19.9731 30.4424L20.7544 31.0666ZM20.4006 31.5093L19.6194 30.8851L19.6192 30.8853L20.4006 31.5093ZM17.6358 33.9471L17.957 33L17.9487 32.9973L17.6358 33.9471ZM17.0736 32.7711L18.073 32.8072L18.0736 32.7901L18.0736 32.7731L17.0736 32.7711ZM17.0784 30.3543L18.0784 30.3562L18.0804 29.3543H17.0784V30.3543ZM17.0736 30.3543L16.7821 31.3108L16.9246 31.3543H17.0736V30.3543ZM12.0136 19.8235L11.0137 19.8039L11.0137 19.8039L12.0136 19.8235ZM14.2147 12.482L13.5098 11.7728L13.4946 11.7878L13.4801 11.8035L14.2147 12.482ZM30.633 12.3501L31.3557 13.0413L32.0327 12.3334L31.339 11.6419L30.633 12.3501ZM22.185 16.085L22.172 17.0849L22.1773 17.085L22.185 16.085ZM22.185 15.5808L22.1918 14.5808H22.185V15.5808ZM26.7466 21.0217H27.7466L27.7466 21.0146L26.7466 21.0217ZM27.2341 21.0175L28.234 21.0051L28.2218 20.0175H27.2341V21.0175ZM27.2333 21.0175L26.2333 21.0253L26.241 22.0175H27.2333V21.0175ZM25.4594 20.4942L24.4597 20.471L24.4597 20.4716L25.4594 20.4942ZM25.947 20.5058L24.9471 20.4842L24.947 20.4934L25.947 20.5058ZM22.5969 17.3975L22.6726 16.4004L22.6697 16.4001L22.5969 17.3975ZM22.6311 16.8933L22.7058 15.8961L22.7036 15.896L22.6311 16.8933ZM20.5082 19.2508L19.8863 18.4677L19.8785 18.4739L19.8708 18.4803L20.5082 19.2508ZM20.0549 19.6258L19.4175 18.8553L19.4163 18.8562L20.0549 19.6258ZM20.6474 18.2117L21.5265 17.7351L21.5223 17.7274L20.6474 18.2117ZM19.5982 16.6618L20.3703 16.0263L20.3664 16.0216L19.5982 16.6618ZM19.5982 16.6617L18.8088 17.2757L18.8191 17.289L18.8299 17.3019L19.5982 16.6617ZM19.5981 16.6617L20.3875 16.0478L20.379 16.0369L20.3703 16.0262L19.5981 16.6617ZM19.4057 16.4183L20.2193 15.8369L20.2037 15.8151L20.187 15.7942L19.4057 16.4183ZM18.504 16.2658V17.2658H18.7571L18.9798 17.1454L18.504 16.2658ZM18.4965 16.2658V15.2658H18.2255L17.9916 15.4027L18.4965 16.2658ZM17.239 18.2892L16.2841 18.5859L16.3086 18.6647L16.3456 18.7385L17.239 18.2892ZM17.5028 18.8906L18.4256 18.5053V18.5053L17.5028 18.8906ZM20.9849 23.94L21.6203 23.1678L21.6179 23.1659L20.9849 23.94ZM24.844 26.1467L25.6853 25.606L25.4825 25.2905L25.1223 25.1862L24.844 26.1467ZM24.8515 26.1583L24.0103 26.699L24.2009 26.9955L24.5353 27.107L24.8515 26.1583ZM26.8074 24.8575L27.684 25.3386L27.8074 25.1139V24.8575H26.8074ZM26.8074 24.8517L25.9142 24.402L25.8074 24.6141V24.8517H26.8074ZM26.664 23.93L25.9659 24.646L25.992 24.6714L26.0198 24.6949L26.664 23.93ZM24.934 22.645L25.4384 21.7815L25.4351 21.7796L24.934 22.645ZM23.9299 22.7892L24.7212 23.4006L24.7275 23.3924L24.7336 23.3841L23.9299 22.7892ZM23.5674 23.2583L24.3586 23.8698L24.3587 23.8697L23.5674 23.2583ZM19.2795 20.3198L18.4101 20.814L18.7875 21.4778L19.5272 21.2887L19.2795 20.3198ZM19.2794 20.3198L19.0318 19.3509L17.7627 19.6752L18.4101 20.814L19.2794 20.3198ZM19.2286 20.2268L18.3491 20.7027L18.6614 21.2797L19.315 21.2231L19.2286 20.2268ZM19.2286 20.2268L19.1424 19.2305L17.6236 19.3619L18.3491 20.7027L19.2286 20.2268ZM22.9791 24.1168L22.4765 24.9813L23.8315 25.7691L23.9749 24.2083L22.9791 24.1168ZM22.9791 24.1167L21.9833 24.0251L21.9248 24.6605L22.4764 24.9812L22.9791 24.1167ZM23.5484 24.4499L23.0587 25.3218L23.0604 25.3227L23.5484 24.4499ZM23.4918 24.4181L23.2593 23.4455L20.7755 24.0394L23.0021 25.29L23.4918 24.4181ZM25.1223 25.1862L25.4006 24.2257L25.4006 24.2257L25.1223 25.1862ZM25.1774 25.2021L24.8991 26.1626L25.2012 26.2502L25.499 26.149L25.1774 25.2021ZM25.356 25.096L25.971 25.8845L25.971 25.8845L25.356 25.096ZM25.841 24.5289L26.6878 25.0609L27.1344 24.3501L26.5116 23.7871L25.841 24.5289ZM24.5719 23.5937L25.095 22.7415L24.3297 22.2717L23.7806 22.9823L24.5719 23.5937ZM24.3587 23.8697L25.145 24.4876L25.15 24.4812L24.3587 23.8697ZM24.3586 23.8698L23.5723 23.2519L23.5674 23.2583L24.3586 23.8698ZM19.4163 18.8562L18.7779 18.0865L18.7778 18.0867L19.4163 18.8562ZM18.9238 19.6265L18.0214 20.0575L19.1605 22.4423L19.8855 19.9008L18.9238 19.6265ZM19.4175 18.8553L18.7801 18.0848L18.7791 18.0856L19.4175 18.8553ZM19.7211 18.6041L20.3585 19.3746L21.0028 18.8417L20.5924 18.1132L19.7211 18.6041ZM18.8607 17.3424L19.6327 16.7067L19.602 16.6694L19.5678 16.6353L18.8607 17.3424ZM18.8607 17.3424L18.0879 17.977L18.119 18.0148L18.1536 18.0495L18.8607 17.3424ZM18.795 17.2623L19.5678 16.6277L18.9764 15.9075L18.2163 16.4467L18.795 17.2623ZM18.3113 17.7193L17.5028 17.1309L17.5028 17.1309L18.3113 17.7193ZM18.1965 17.9369L19.1655 18.1843L19.1655 18.1843L18.1965 17.9369ZM18.1916 17.962L17.1985 17.8449L17.1651 18.1287L17.2866 18.3872L18.1916 17.962ZM18.4574 18.5719L17.5361 18.9607L17.5383 18.9658L18.4574 18.5719ZM18.4574 18.5719L19.3788 18.1831L19.3766 18.178L18.4574 18.5719ZM22.9741 18.7533L22.9151 19.7516L22.9159 19.7516L22.9741 18.7533ZM24.205 20.0775L25.204 20.0329L25.2038 20.0291L24.205 20.0775ZM23.0008 18.2492L22.9412 19.2474L22.9455 19.2476L23.0008 18.2492ZM24.6924 20.0542L25.6915 20.0095L25.6913 20.0067L24.6924 20.0542ZM33.7791 24.0067C34.129 20.924 34.0517 18.357 33.6288 16.3072C33.2075 14.2646 32.4283 12.6695 31.3178 11.6233L29.9463 13.079C30.6609 13.7522 31.3001 14.9177 31.6701 16.7112C32.0386 18.4975 32.1254 20.8422 31.7919 23.7812L33.7791 24.0067ZM27.882 31.4279C28.4777 31.2641 29.8107 30.9029 31.0659 29.8055C32.3444 28.6876 33.4549 26.8871 33.7792 24.0058L31.7918 23.7821C31.518 26.2136 30.6185 27.54 29.7494 28.2998C28.857 29.0801 27.9047 29.3474 27.3517 29.4995L27.882 31.4279ZM27.918 31.4173L27.918 31.4172L27.3157 29.5101L27.3157 29.5101L27.918 31.4173ZM27.6803 31.4857C27.7039 31.4775 27.7544 31.463 27.882 31.4279L27.3517 29.4995C27.254 29.5263 27.123 29.5618 27.0183 29.5985L27.6803 31.4857ZM20.6639 32.0625C24.377 32.3996 27.25 31.6354 27.6778 31.4866L27.0208 29.5976C27.0214 29.5974 27.0086 29.6017 26.9783 29.6107C26.95 29.6192 26.9115 29.6301 26.8631 29.6431C26.7663 29.6692 26.6341 29.7023 26.4695 29.7391C26.1405 29.8127 25.6871 29.9 25.1342 29.9749C24.0269 30.125 22.5326 30.224 20.8448 30.0707L20.6639 32.0625ZM21.1818 32.1336L21.5356 31.6909L19.9731 30.4424L19.6194 30.8851L21.1818 32.1336ZM17.3147 34.8941C17.5931 34.9886 17.949 35.053 18.3537 34.9401C18.7235 34.8369 19.0181 34.6162 19.2578 34.3959C19.7149 33.9757 20.3076 33.2282 21.182 32.1334L19.6192 30.8853C18.6842 32.056 18.2164 32.6366 17.9043 32.9235C17.7594 33.0567 17.7423 33.0343 17.8161 33.0137C17.9248 32.9833 18.0004 33.0148 17.957 33.0001L17.3147 34.8941ZM17.0736 32.7711C16.0743 32.7351 16.0743 32.7354 16.0742 32.7357C16.0742 32.7358 16.0742 32.7361 16.0742 32.7363C16.0742 32.7368 16.0742 32.7372 16.0742 32.7377C16.0741 32.7386 16.0741 32.7396 16.0741 32.7407C16.074 32.7428 16.0739 32.7452 16.0739 32.7478C16.0737 32.7531 16.0736 32.7593 16.0735 32.7665C16.0733 32.781 16.0731 32.7993 16.0733 32.821C16.0736 32.8643 16.0751 32.9221 16.0794 32.9906C16.0879 33.1242 16.1083 33.3144 16.1593 33.5228C16.2447 33.8722 16.5073 34.6282 17.323 34.8969L17.9487 32.9973C18.0531 33.0317 18.1095 33.0983 18.1245 33.1205C18.1325 33.1322 18.1182 33.114 18.102 33.0478C18.0871 32.9868 18.079 32.9199 18.0754 32.8638C18.0737 32.8374 18.0733 32.8172 18.0732 32.8062C18.0732 32.8007 18.0732 32.7978 18.0732 32.7978C18.0732 32.7978 18.0732 32.7985 18.0732 32.8001C18.0732 32.8008 18.0731 32.8018 18.0731 32.803C18.0731 32.8036 18.0731 32.8042 18.073 32.8049C18.073 32.8053 18.073 32.8056 18.073 32.806C18.073 32.8062 18.073 32.8065 18.073 32.8066C18.073 32.8069 18.073 32.8072 17.0736 32.7711ZM16.0784 30.3523L16.0736 32.7692L18.0736 32.7731L18.0784 30.3562L16.0784 30.3523ZM17.0736 31.3543H17.0784V29.3543H17.0736V31.3543ZM11.0137 19.8039C10.9835 21.3452 10.9402 23.7358 11.6165 25.9548C12.3082 28.2243 13.7824 30.3968 16.7821 31.3108L17.3651 29.3977C15.1711 28.7291 14.0848 27.1934 13.5296 25.3717C12.959 23.4996 12.9825 21.4161 13.0134 19.8432L11.0137 19.8039ZM13.4801 11.8035C11.6408 13.795 11.0761 16.6248 11.0137 19.8039L13.0134 19.8432C13.0732 16.7958 13.6234 14.5961 14.9493 13.1605L13.4801 11.8035ZM31.339 11.6419C30.4315 10.7373 29.0727 10.0983 27.5942 9.67753C26.0954 9.25104 24.3761 9.02119 22.6523 9.0014C20.9286 8.98161 19.1673 9.17144 17.5871 9.60658C16.0178 10.0387 14.5562 10.7326 13.5098 11.7728L14.9197 13.1913C15.6353 12.4799 16.7389 11.9146 18.1181 11.5348C19.4865 11.158 21.0571 10.9832 22.6293 11.0013C24.2013 11.0193 25.7416 11.2298 27.0468 11.6012C28.3722 11.9783 29.3616 12.4948 29.927 13.0584L31.339 11.6419ZM31.3547 13.0423L31.3557 13.0413L29.9103 11.659L29.9093 11.66L31.3547 13.0423ZM22.1979 15.0851C22.4024 15.0877 22.618 15.1812 22.7683 15.359C22.9013 15.5164 22.9443 15.6918 22.9443 15.8314C22.9443 15.9707 22.9013 16.1488 22.7648 16.3086C22.6101 16.4896 22.3898 16.5808 22.185 16.5808V14.5808C21.8197 14.5808 21.4791 14.7346 21.2442 15.0095C21.0275 15.2631 20.9443 15.5665 20.9443 15.8314C20.9443 16.0965 21.0275 16.3976 21.2407 16.6499C21.4712 16.9227 21.8071 17.0802 22.172 17.0849L22.1979 15.0851ZM27.7466 21.0146C27.7338 19.2032 27.1384 17.7099 26.1011 16.6632C25.0675 15.6203 23.6697 15.0964 22.1927 15.085L22.1773 17.085C23.1894 17.0928 24.0611 17.446 24.6805 18.071C25.2961 18.6922 25.7369 19.6576 25.7466 21.0287L27.7466 21.0146ZM26.2342 21.0299C26.232 20.8509 26.304 20.6375 26.4783 20.4752C26.6361 20.3283 26.824 20.2729 26.9834 20.2715C27.1428 20.2701 27.3327 20.3224 27.4938 20.4679C27.6718 20.6288 27.7466 20.8426 27.7466 21.0217H25.7466C25.7466 21.3687 25.8829 21.7079 26.153 21.9519C26.4061 22.1807 26.7187 22.2738 27.0004 22.2714C27.2823 22.269 27.5923 22.1706 27.8411 21.939C28.1064 21.6919 28.2383 21.352 28.234 21.0051L26.2342 21.0299ZM27.2333 22.0175H27.2341V20.0175H27.2333V22.0175ZM22.1781 16.5808C23.3294 16.5887 24.322 17.0002 25.0291 17.7209C25.734 18.4391 26.2217 19.5329 26.2333 21.0253L28.2333 21.0097C28.2182 19.0729 27.5734 17.458 26.4566 16.32C25.3421 15.1844 23.8239 14.5921 22.1918 14.5809L22.1781 16.5808ZM24.4597 20.4716C24.4518 20.8208 24.5826 21.1601 24.8423 21.4073C25.0855 21.6389 25.3906 21.742 25.6707 21.7499C25.9509 21.7578 26.2664 21.6718 26.5254 21.4458C26.8021 21.2044 26.9426 20.865 26.9469 20.5182L24.947 20.4934C24.9492 20.3146 25.0268 20.0992 25.2105 19.9388C25.3765 19.794 25.5691 19.7463 25.7269 19.7507C25.8848 19.7551 26.0683 19.8131 26.2215 19.959C26.3911 20.1205 26.4633 20.3333 26.4592 20.5168L24.4597 20.4716ZM22.5213 18.3946C23.251 18.45 23.7186 18.7146 24.0041 19.0393C24.2946 19.3697 24.4741 19.8507 24.4597 20.471L26.4592 20.5173C26.4832 19.4818 26.1813 18.4866 25.506 17.7186C24.8257 16.945 23.8429 16.4892 22.6726 16.4004L22.5213 18.3946ZM22.7036 15.896C22.3361 15.8692 21.9832 16.0006 21.7294 16.2609C21.4959 16.5004 21.3936 16.798 21.3759 17.0611C21.3583 17.3244 21.4202 17.6308 21.6162 17.8976C21.8288 18.187 22.1564 18.368 22.5242 18.3949L22.6697 16.4001C22.8775 16.4153 23.0892 16.5245 23.2281 16.7136C23.3504 16.88 23.3807 17.0575 23.3715 17.1947C23.3623 17.3318 23.3084 17.5063 23.1614 17.6571C22.9941 17.8287 22.7657 17.9058 22.5586 17.8907L22.7036 15.896ZM26.9467 20.5274C26.9717 19.3714 26.6272 18.2572 25.8815 17.3971C25.1292 16.5292 24.0337 15.9956 22.7058 15.8961L22.5564 17.8905C23.4194 17.9552 24.0022 18.2825 24.3703 18.7071C24.7451 19.1394 24.9631 19.7494 24.9472 20.4842L26.9467 20.5274ZM19.8708 18.4803L19.4175 18.8553L20.6922 20.3964L21.1456 20.0214L19.8708 18.4803ZM19.7682 18.6882C19.7703 18.692 19.7603 18.6711 19.7672 18.635C19.7702 18.6199 19.7765 18.5993 19.7909 18.5742C19.8045 18.5507 19.8325 18.5105 19.8863 18.4677L21.1301 20.0339C21.7529 19.5393 21.9787 18.5693 21.5265 17.7351L19.7682 18.6882ZM18.8261 17.2972C19.0397 17.5568 19.3482 17.9295 19.7724 18.6959L21.5223 17.7274C21.0166 16.8137 20.6254 16.3362 20.3703 16.0263L18.8261 17.2972ZM18.8299 17.3019L18.8299 17.3019L20.3664 16.0216L20.3664 16.0216L18.8299 17.3019ZM18.8088 17.2757L18.8088 17.2757L20.3875 16.0478L20.3875 16.0478L18.8088 17.2757ZM18.5921 16.9998C18.6679 17.1058 18.7561 17.2123 18.826 17.2972L20.3703 16.0262C20.2873 15.9254 20.2472 15.876 20.2193 15.8369L18.5921 16.9998ZM18.9798 17.1454C18.9937 17.1379 18.9368 17.1715 18.8302 17.1529C18.7177 17.1333 18.6483 17.0724 18.6244 17.0425L20.187 15.7942C19.9414 15.4867 19.5945 15.2559 19.1732 15.1825C18.7579 15.1102 18.361 15.2063 18.0283 15.3863L18.9798 17.1454ZM18.4965 17.2658H18.504V15.2658H18.4965V17.2658ZM18.194 17.9924C18.1913 17.9838 18.1877 17.9717 18.1965 17.9369C18.2075 17.8938 18.2381 17.8199 18.3113 17.7193C18.4636 17.5101 18.7222 17.2923 19.0014 17.129L17.9916 15.4027C17.55 15.661 17.0536 16.0487 16.6942 16.5425C16.3345 17.0369 16.0293 17.7661 16.2841 18.5859L18.194 17.9924ZM18.4256 18.5053C18.3278 18.271 18.2267 18.0274 18.1324 17.8399L16.3456 18.7385C16.4007 18.8481 16.4708 19.0143 16.5801 19.2759L18.4256 18.5053ZM21.6179 23.1659C19.7403 21.6306 18.9152 19.6778 18.4256 18.5053L16.5801 19.2759C17.0778 20.4679 18.0579 22.8384 20.3518 24.7141L21.6179 23.1659ZM25.1223 25.1862C24.8365 25.1034 24.2486 24.8413 23.5484 24.4499C22.8639 24.0672 22.1526 23.6059 21.6203 23.1678L20.3494 24.7122C21.003 25.25 21.8229 25.7766 22.5724 26.1956C23.3061 26.6058 24.0549 26.9591 24.5657 27.1072L25.1223 25.1862ZM25.6928 25.6177L25.6853 25.606L24.0028 26.6873L24.0103 26.699L25.6928 25.6177ZM25.9307 24.3764C25.7693 24.6704 25.5565 24.9396 25.356 25.096C25.2597 25.1711 25.1949 25.1977 25.1664 25.2055C25.1541 25.2089 25.1515 25.208 25.1563 25.2081C25.1585 25.2081 25.1611 25.2083 25.1638 25.2088C25.1665 25.2092 25.1679 25.2097 25.1678 25.2097L24.5353 27.107C25.3725 27.3861 26.1088 27.0452 26.586 26.673C27.0653 26.2992 27.4379 25.7871 27.684 25.3386L25.9307 24.3764ZM25.8074 24.8517V24.8575H27.8074V24.8517H25.8074ZM26.0198 24.6949C26.0035 24.6811 25.9801 24.6567 25.9586 24.6196C25.9368 24.5821 25.922 24.5403 25.9153 24.4987C25.9014 24.4125 25.9279 24.3748 25.9142 24.402L27.7005 25.3014C27.8677 24.9694 27.9546 24.5821 27.8898 24.1805C27.8239 23.7712 27.6115 23.4206 27.3082 23.1652L26.0198 24.6949ZM24.4297 23.5085C24.9359 23.8042 25.5714 24.2613 25.9659 24.646L27.3622 23.214C26.82 22.6854 26.0422 22.1342 25.4384 21.7815L24.4297 23.5085ZM24.7336 23.3841C24.6938 23.4379 24.6539 23.4689 24.6258 23.4862C24.5965 23.5042 24.5689 23.5143 24.5439 23.5194C24.5178 23.5248 24.4925 23.5251 24.4702 23.5215C24.4592 23.5198 24.4501 23.5173 24.4433 23.5148C24.4399 23.5136 24.4374 23.5126 24.4356 23.5117C24.4338 23.5109 24.4329 23.5104 24.433 23.5104L25.4351 21.7796C24.5857 21.2878 23.604 21.5486 23.1261 22.1942L24.7336 23.3841ZM24.3587 23.8697L24.7212 23.4006L23.1385 22.1778L22.776 22.6469L24.3587 23.8697ZM23.039 23.465C22.9474 24.4608 22.9478 24.4608 22.9481 24.4609C22.9482 24.4609 22.9486 24.4609 22.9489 24.4609C22.9493 24.461 22.9498 24.461 22.9503 24.4611C22.9514 24.4612 22.9524 24.4612 22.9534 24.4613C22.9556 24.4615 22.9578 24.4617 22.9601 24.4619C22.9648 24.4623 22.9699 24.4626 22.9754 24.463C22.9864 24.4638 22.999 24.4645 23.0132 24.4651C23.0415 24.4662 23.0766 24.4669 23.1172 24.466C23.1965 24.4643 23.3058 24.4566 23.4308 24.4315C23.6662 24.3843 24.0628 24.2526 24.3586 23.8698L22.7761 22.6469C22.8877 22.5024 23.0201 22.474 23.0375 22.4706C23.0534 22.4674 23.0651 22.4667 23.0742 22.4665C23.0796 22.4663 23.0864 22.4664 23.0951 22.4667C23.0996 22.4669 23.1046 22.4672 23.1105 22.4676C23.1134 22.4678 23.1166 22.468 23.1199 22.4683C23.1216 22.4684 23.1233 22.4686 23.1251 22.4687C23.126 22.4688 23.1269 22.4689 23.1278 22.469C23.1283 22.469 23.1288 22.469 23.1292 22.4691C23.1295 22.4691 23.1298 22.4691 23.1299 22.4691C23.1303 22.4692 23.1306 22.4692 23.039 23.465ZM19.8557 20.1725C18.8868 20.4201 18.8869 20.4205 18.887 20.4209C18.8871 20.4211 18.8872 20.4215 18.8873 20.4218C18.8874 20.4224 18.8876 20.4231 18.8878 20.4238C18.8881 20.4251 18.8885 20.4267 18.889 20.4284C18.8899 20.4318 18.891 20.4359 18.8922 20.4406C18.8948 20.45 18.8981 20.4619 18.9021 20.4763C18.9103 20.5049 18.9216 20.5432 18.9365 20.5898C18.9662 20.6831 19.01 20.8108 19.0708 20.9634C19.1916 21.267 19.3827 21.678 19.6675 22.1153C20.2354 22.9876 21.2132 24.0166 22.7834 24.4318L23.2947 22.4982C22.3532 22.2493 21.7393 21.632 21.3435 21.0241C21.1463 20.7212 21.0125 20.4337 20.929 20.2237C20.8875 20.1195 20.8593 20.0367 20.8424 19.9836C20.834 19.9572 20.8285 19.9383 20.8255 19.9281C20.8241 19.923 20.8233 19.9201 20.8232 19.9195C20.8231 19.9192 20.8232 19.9195 20.8234 19.9204C20.8235 19.9209 20.8237 19.9215 20.8239 19.9222C20.824 19.9226 20.8241 19.923 20.8242 19.9234C20.8242 19.9237 20.8243 19.924 20.8244 19.9241C20.8245 19.9245 20.8246 19.9249 19.8557 20.1725ZM19.4163 18.8562C19.0472 19.1625 18.928 19.5623 18.886 19.7874C18.8631 19.91 18.8562 20.017 18.8547 20.0946C18.8539 20.1342 18.8545 20.1684 18.8556 20.1958C18.8561 20.2096 18.8568 20.2218 18.8574 20.2323C18.8578 20.2376 18.8581 20.2424 18.8584 20.2468C18.8586 20.249 18.8588 20.2512 18.8589 20.2532C18.859 20.2542 18.8591 20.2551 18.8592 20.2561C18.8592 20.2565 18.8593 20.257 18.8593 20.2575C18.8593 20.2577 18.8594 20.258 18.8594 20.2582C18.8594 20.2585 18.8594 20.2588 19.8557 20.1725C20.852 20.0862 20.852 20.0865 20.852 20.0868C20.852 20.087 20.852 20.0873 20.8521 20.0875C20.8521 20.0879 20.8521 20.0884 20.8522 20.0888C20.8523 20.0897 20.8523 20.0905 20.8524 20.0913C20.8525 20.093 20.8526 20.0946 20.8528 20.0961C20.853 20.0992 20.8532 20.102 20.8534 20.1046C20.8537 20.1098 20.8539 20.1142 20.8541 20.1179C20.8543 20.1251 20.8543 20.13 20.8543 20.1333C20.8542 20.1382 20.8539 20.1443 20.8521 20.1541C20.8505 20.1627 20.8446 20.1911 20.8249 20.2313C20.8042 20.2737 20.7641 20.3368 20.6934 20.3954L19.4163 18.8562ZM19.5272 21.2887L20.1034 21.1413L19.608 19.2037L19.0318 19.351L19.5272 21.2887ZM18.4101 20.814L18.4101 20.814L20.1488 19.8256L20.1488 19.8256L18.4101 20.814ZM19.6081 19.2036L19.0318 19.3509L19.527 21.2886L20.1033 21.1414L19.6081 19.2036ZM19.315 21.2231L19.942 21.1688L19.7694 19.1762L19.1423 19.2306L19.315 21.2231ZM18.3491 20.7027L18.3491 20.7027L20.1081 19.7509L20.1081 19.7509L18.3491 20.7027ZM19.7695 19.1762L19.1424 19.2305L19.3148 21.223L19.9419 21.1688L19.7695 19.1762ZM23.9749 24.2083L24.0348 23.5565L22.0432 23.3735L21.9833 24.0253L23.9749 24.2083ZM22.4764 24.9812L22.4765 24.9813L23.4818 23.2523L23.4817 23.2522L22.4764 24.9812ZM22.0432 23.3734L21.9833 24.0251L23.9749 24.2083L24.0348 23.5566L22.0432 23.3734ZM24.038 23.578L23.9815 23.5462L23.0021 25.29L23.0587 25.3218L24.038 23.578ZM25.4006 24.2257C25.2275 24.1755 24.7201 23.9593 24.0363 23.577L23.0604 25.3227C23.777 25.7234 24.4455 26.0312 24.844 26.1467L25.4006 24.2257ZM25.4557 24.2416L25.4006 24.2257L24.844 26.1467L24.8991 26.1626L25.4557 24.2416ZM24.741 24.3074C24.7341 24.3128 24.739 24.3082 24.7564 24.2984C24.7728 24.2892 24.8059 24.2722 24.8558 24.2553L25.499 26.149C25.6589 26.0947 25.8171 26.0045 25.971 25.8845L24.741 24.3074ZM24.9943 23.9969C24.8874 24.167 24.7865 24.2719 24.741 24.3074L25.971 25.8845C26.2558 25.6623 26.5021 25.3565 26.6878 25.0609L24.9943 23.9969ZM24.0489 24.446C24.4346 24.6828 24.8708 24.9999 25.1704 25.2707L26.5116 23.7871C26.1015 23.4163 25.5611 23.0275 25.095 22.7415L24.0489 24.446ZM25.15 24.4812L25.3632 24.2051L23.7806 22.9823L23.5674 23.2583L25.15 24.4812ZM25.145 24.4876L25.145 24.4876L23.5724 23.2519L23.5723 23.252L25.145 24.4876ZM23.7244 25.3907C24.0934 25.3024 24.6903 25.076 25.1499 24.4812L23.5674 23.2583C23.4838 23.3665 23.3678 23.4196 23.2593 23.4455L23.7244 25.3907ZM18.7778 18.0867C18.283 18.4972 18.0624 19.0007 17.9622 19.3522L19.8855 19.9008C19.9145 19.799 19.9651 19.7003 20.0549 19.6258L18.7778 18.0867ZM18.7791 18.0856L18.7779 18.0865L20.0547 19.626L20.0558 19.625L18.7791 18.0856ZM19.0838 17.8335L18.7801 18.0848L20.0549 19.6258L20.3585 19.3746L19.0838 17.8335ZM18.0888 17.9781C18.2866 18.2183 18.5016 18.4766 18.8499 19.0949L20.5924 18.1132C20.1671 17.3584 19.8749 17.0009 19.6327 16.7067L18.0888 17.9781ZM18.1536 18.0495L18.1536 18.0495L19.5678 16.6353L19.5678 16.6353L18.1536 18.0495ZM18.0222 17.8969L18.0879 17.977L19.6336 16.7078L19.5678 16.6277L18.0222 17.8969ZM19.1199 18.3077C19.152 18.2637 19.2366 18.1751 19.3736 18.0779L18.2163 16.4467C17.9599 16.6287 17.6983 16.8623 17.5028 17.1309L19.1199 18.3077ZM19.1655 18.1843C19.1507 18.2421 19.1337 18.2796 19.1254 18.2961C19.1164 18.3141 19.1126 18.3178 19.1199 18.3077L17.5028 17.1309C17.3747 17.307 17.2773 17.495 17.2276 17.6895L19.1655 18.1843ZM19.1848 18.079C19.1793 18.1251 19.1713 18.1612 19.1655 18.1843L17.2276 17.6895C17.2166 17.7328 17.2055 17.7853 17.1985 17.8449L19.1848 18.079ZM19.3787 18.1831C19.2843 17.9594 19.1892 17.7337 19.0967 17.5367L17.2866 18.3872C17.3586 18.5406 17.437 18.726 17.5361 18.9607L19.3787 18.1831ZM19.3766 18.178L19.3766 18.178L17.5383 18.9658L17.5383 18.9659L19.3766 18.178ZM19.8262 19.1955C19.654 18.835 19.5115 18.4976 19.3787 18.1831L17.5361 18.9607C17.6677 19.2725 17.8267 19.6498 18.0214 20.0575L19.8262 19.1955ZM22.9159 19.7516C23.1572 19.7657 23.1719 19.8239 23.1417 19.7914C23.1223 19.7706 23.1914 19.8229 23.2061 20.1259L25.2038 20.0291C25.1768 19.4729 25.031 18.8865 24.6068 18.43C24.1718 17.9619 23.5919 17.7876 23.0323 17.755L22.9159 19.7516ZM23.0604 17.2509C22.6928 17.229 22.3426 17.3647 22.0926 17.6264C21.8622 17.8676 21.762 18.166 21.7472 18.4308C21.7323 18.6958 21.7985 19.0035 22.0004 19.269C22.2191 19.5567 22.5502 19.73 22.9151 19.7516L23.0331 17.7551C23.236 17.7671 23.4492 17.8702 23.5924 18.0585C23.7188 18.2247 23.7518 18.404 23.744 18.543C23.7362 18.6817 23.6834 18.8565 23.5388 19.0079C23.3745 19.1799 23.1483 19.2598 22.9412 19.2474L23.0604 17.2509ZM25.6913 20.0067C25.6571 19.2878 25.4455 18.5966 24.9514 18.0692C24.4497 17.5338 23.7726 17.2904 23.0561 17.2507L22.9455 19.2476C23.2823 19.2663 23.4244 19.3646 23.4919 19.4366C23.5669 19.5167 23.6744 19.6988 23.6936 20.1017L25.6913 20.0067ZM23.2059 20.1221C23.2213 20.466 23.37 20.7974 23.648 21.0298C23.9093 21.2483 24.225 21.3301 24.5078 21.3166C24.7906 21.303 25.0959 21.1916 25.3345 20.9511C25.5883 20.6954 25.7068 20.3534 25.6915 20.0095L23.6934 20.0988C23.6856 19.9229 23.7488 19.7097 23.9149 19.5423C24.0659 19.3902 24.2512 19.3266 24.4121 19.3188C24.573 19.3111 24.765 19.3568 24.9311 19.4957C25.1139 19.6486 25.1961 19.8569 25.204 20.0329L23.2059 20.1221Z" fill="white" mask="url(#path-1-inside-1_535_11723)"/>
</svg>
