<svg width="44" height="44" viewBox="0 0 44 44" fill="none" xmlns="http://www.w3.org/2000/svg">
<mask id="path-1-inside-1_535_11721" fill="white">
<path d="M33.469 15.5719L33.499 15.7794C33.209 14.6899 32.426 13.8492 31.431 13.5432L31.41 13.5379C29.5391 13 22.0101 13 22.0101 13C22.0101 13 14.5002 12.9894 12.6103 13.5379C11.5963 13.8492 10.8123 14.6899 10.5273 15.7572L10.5223 15.7794C9.8233 19.6452 9.8183 24.2902 10.5533 28.4292L10.5223 28.2195C10.8123 29.3091 11.5953 30.1498 12.5903 30.4558L12.6113 30.4611C14.4802 31 22.0111 31 22.0111 31C22.0111 31 29.5201 31 31.411 30.4611C32.426 30.1498 33.21 29.3091 33.495 28.2418L33.5 28.2195C33.818 26.4217 34 24.3527 34 22.2393C34 22.162 34 22.0837 33.999 22.0053C34 21.9333 34 21.8475 34 21.7618C34 19.6473 33.818 17.5784 33.469 15.5719ZM21.1322 24.9281C20.4659 25.338 19.6082 24.8587 19.6082 24.0764V19.936C19.6082 19.1531 20.4671 18.6738 21.1333 19.085L24.493 21.1583C25.1266 21.5493 25.126 22.4709 24.4919 22.861L21.1322 24.9281Z"/>
</mask>
<path d="M33.469 15.5719L33.499 15.7794C33.209 14.6899 32.426 13.8492 31.431 13.5432L31.41 13.5379C29.5391 13 22.0101 13 22.0101 13C22.0101 13 14.5002 12.9894 12.6103 13.5379C11.5963 13.8492 10.8123 14.6899 10.5273 15.7572L10.5223 15.7794C9.8233 19.6452 9.8183 24.2902 10.5533 28.4292L10.5223 28.2195C10.8123 29.3091 11.5953 30.1498 12.5903 30.4558L12.6113 30.4611C14.4802 31 22.0111 31 22.0111 31C22.0111 31 29.5201 31 31.411 30.4611C32.426 30.1498 33.21 29.3091 33.495 28.2418L33.5 28.2195C33.818 26.4217 34 24.3527 34 22.2393C34 22.162 34 22.0837 33.999 22.0053C34 21.9333 34 21.8475 34 21.7618C34 19.6473 33.818 17.5784 33.469 15.5719ZM21.1322 24.9281C20.4659 25.338 19.6082 24.8587 19.6082 24.0764V19.936C19.6082 19.1531 20.4671 18.6738 21.1333 19.085L24.493 21.1583C25.1266 21.5493 25.126 22.4709 24.4919 22.861L21.1322 24.9281Z" fill="white"/>
<path d="M33.469 15.5719L34.4542 15.4005L32.4793 15.715L33.469 15.5719ZM33.499 15.7794L32.5326 16.0366L34.4887 15.6364L33.499 15.7794ZM31.431 13.5432L31.725 12.5874L31.7004 12.5798L31.6755 12.5735L31.431 13.5432ZM31.41 13.5379L31.1337 14.499L31.1496 14.5035L31.1656 14.5076L31.41 13.5379ZM22.0101 13L22.0087 14H22.0101V13ZM12.6103 13.5379L12.3316 12.5775L12.3242 12.5797L12.3168 12.5819L12.6103 13.5379ZM10.5273 15.7572L9.56114 15.4992L9.55601 15.5184L9.55165 15.5378L10.5273 15.7572ZM10.5223 15.7794L9.54665 15.56L9.54201 15.5807L9.53824 15.6015L10.5223 15.7794ZM10.5533 28.4292L9.56869 28.604L11.5425 28.2829L10.5533 28.4292ZM10.5223 28.2195L11.4886 27.9623L9.53304 28.3658L10.5223 28.2195ZM12.5903 30.4558L12.2963 31.4116L12.3209 31.4191L12.3458 31.4254L12.5903 30.4558ZM12.6113 30.4611L12.8883 29.5002L12.8721 29.4955L12.8557 29.4914L12.6113 30.4611ZM22.0111 31V30V31ZM31.411 30.4611L31.6851 31.4228L31.6947 31.42L31.7042 31.4171L31.411 30.4611ZM33.495 28.2418L34.4612 28.4998L34.4663 28.4805L34.4706 28.4611L33.495 28.2418ZM33.5 28.2195L34.4756 28.4389L34.4807 28.4164L34.4847 28.3937L33.5 28.2195ZM33.999 22.0053L32.9991 21.9914L32.9989 22.0047L32.9991 22.0181L33.999 22.0053ZM24.493 21.1583L23.9679 22.0093L24.493 21.1583ZM24.4919 22.861L23.9679 22.0093L24.4919 22.861ZM21.1333 19.085L21.6585 18.234L21.1333 19.085ZM21.1322 24.9281L20.6082 24.0764L21.1322 24.9281ZM32.4793 15.715L32.5093 15.9225L34.4887 15.6364L34.4587 15.4288L32.4793 15.715ZM34.4654 15.5222C34.0942 14.1279 33.0768 13.0031 31.725 12.5874L31.1371 14.499C31.7753 14.6953 32.3238 15.2519 32.5326 16.0366L34.4654 15.5222ZM31.6755 12.5735L31.6545 12.5682L31.1656 14.5076L31.1866 14.5128L31.6755 12.5735ZM31.6863 12.5768C31.108 12.4106 30.1906 12.305 29.2298 12.23C28.239 12.1526 27.1054 12.1016 26.0402 12.0678C24.9734 12.0339 23.9667 12.0169 23.2272 12.0085C22.8573 12.0043 22.5537 12.0021 22.3423 12.0011C22.2366 12.0005 22.154 12.0003 22.0975 12.0001C22.0693 12.0001 22.0476 12 22.033 12C22.0256 12 22.02 12 22.0162 12C22.0143 12 22.0128 12 22.0118 12C22.0113 12 22.0109 12 22.0106 12C22.0105 12 22.0104 12 22.0103 12C22.0102 12 22.0101 12 22.0101 13C22.0101 14 22.0101 14 22.0102 14C22.0102 14 22.0103 14 22.0104 14C22.0105 14 22.0108 14 22.0112 14C22.0121 14 22.0133 14 22.015 14C22.0185 14 22.0237 14 22.0307 14C22.0446 14 22.0654 14.0001 22.0928 14.0001C22.1476 14.0003 22.2285 14.0005 22.3323 14.0011C22.54 14.0021 22.8392 14.0042 23.2043 14.0084C23.935 14.0167 24.9275 14.0334 25.9767 14.0667C27.0277 14.1001 28.127 14.15 29.0742 14.2239C30.0512 14.3002 30.7765 14.3963 31.1337 14.499L31.6863 12.5768ZM22.0101 13C22.0116 12 22.0115 12 22.0114 12C22.0113 12 22.0112 12 22.0111 12C22.0108 12 22.0104 12 22.0099 12C22.0089 12 22.0074 12 22.0055 12C22.0017 12 21.9961 12 21.9888 12C21.9741 12 21.9525 12 21.9243 12C21.868 12.0001 21.7855 12.0002 21.68 12.0006C21.4691 12.0014 21.1661 12.0032 20.7969 12.007C20.0588 12.0146 19.0537 12.0305 17.9878 12.0638C16.9236 12.0969 15.7902 12.1476 14.7981 12.2255C13.8357 12.3011 12.9154 12.4081 12.3316 12.5775L12.889 14.4983C13.2501 14.3935 13.9773 14.2961 14.9546 14.2194C15.9021 14.145 17.0005 14.0955 18.0501 14.0628C19.098 14.0301 20.0884 14.0144 20.8175 14.0069C21.1818 14.0031 21.4804 14.0014 21.6875 14.0006C21.7911 14.0002 21.8717 14.0001 21.9264 14C21.9537 14 21.9745 14 21.9883 14C21.9952 14 22.0004 14 22.0039 14C22.0056 14 22.0068 14 22.0077 14C22.0081 14 22.0084 14 22.0085 14C22.0086 14 22.0087 14 22.0087 14C22.0087 14 22.0087 14 22.0101 13ZM12.3168 12.5819C10.953 13.0006 9.92946 14.1199 9.56114 15.4992L11.4934 16.0152C11.6951 15.2599 12.2396 14.6978 12.9037 14.4939L12.3168 12.5819ZM9.55165 15.5378L9.54665 15.56L11.4979 15.9988L11.5029 15.9766L9.55165 15.5378ZM9.53824 15.6015C8.81743 19.5879 8.81371 24.3525 9.56869 28.604L11.5379 28.2543C10.8229 24.228 10.8292 19.7024 11.5063 15.9574L9.53824 15.6015ZM11.5425 28.2829L11.5115 28.0733L9.53304 28.3658L9.56404 28.5755L11.5425 28.2829ZM9.55593 28.4767C9.92705 29.871 10.9445 30.9959 12.2963 31.4116L12.8842 29.4999C12.246 29.3037 11.6975 28.7471 11.4886 27.9623L9.55593 28.4767ZM12.3458 31.4254L12.3668 31.4307L12.8557 29.4914L12.8347 29.4861L12.3458 31.4254ZM12.3342 31.4219C12.9123 31.5886 13.8299 31.6944 14.7905 31.7696C15.7812 31.8471 16.915 31.8982 17.9803 31.9321C19.0472 31.9661 20.0542 31.983 20.7938 31.9915C21.1638 31.9958 21.4675 31.9979 21.6789 31.9989C21.7846 31.9995 21.8673 31.9997 21.9237 31.9999C21.952 31.9999 21.9736 32 21.9883 32C21.9957 32 22.0013 32 22.0051 32C22.007 32 22.0085 32 22.0095 32C22.01 32 22.0104 32 22.0107 32C22.0108 32 22.0109 32 22.011 32C22.0111 32 22.0111 32 22.0111 31C22.0111 30 22.0112 30 22.0111 30C22.0111 30 22.011 30 22.0109 30C22.0108 30 22.0105 30 22.0101 30C22.0092 30 22.008 30 22.0062 30C22.0028 30 21.9976 30 21.9906 30C21.9767 30 21.9559 29.9999 21.9285 29.9999C21.8737 29.9997 21.7928 29.9995 21.6889 29.999C21.4812 29.9979 21.1819 29.9958 20.8167 29.9916C20.0859 29.9833 19.0932 29.9665 18.0439 29.9331C16.9928 29.8997 15.8934 29.8498 14.9465 29.7757C13.9694 29.6992 13.2447 29.603 12.8883 29.5002L12.3342 31.4219ZM22.0111 31C22.0111 32 22.0112 32 22.0113 32C22.0114 32 22.0115 32 22.0116 32C22.0119 32 22.0123 32 22.0128 32C22.0138 32 22.0153 32 22.0172 32C22.021 32 22.0266 32 22.0339 32C22.0486 32 22.0702 31.9999 22.0983 31.9999C22.1546 31.9997 22.2371 31.9995 22.3425 31.9989C22.5534 31.9979 22.8563 31.9958 23.2254 31.9915C23.9634 31.983 24.9682 31.9661 26.0338 31.9321C27.0977 31.8982 28.2308 31.8471 29.2224 31.7696C30.185 31.6944 31.1033 31.5886 31.6851 31.4228L31.1369 29.4994C30.7733 29.603 30.0439 29.6993 29.0666 29.7757C28.1186 29.8498 27.0198 29.8997 25.9701 29.9331C24.9221 29.9665 23.9316 29.9833 23.2025 29.9916C22.8381 29.9958 22.5396 29.9979 22.3325 29.999C22.2289 29.9995 22.1482 29.9997 22.0936 29.9999C22.0663 29.9999 22.0455 30 22.0316 30C22.0247 30 22.0195 30 22.016 30C22.0143 30 22.013 30 22.0122 30C22.0118 30 22.0115 30 22.0113 30C22.0113 30 22.0112 30 22.0112 30C22.0111 30 22.0111 30 22.0111 31ZM31.7042 31.4171C33.0691 30.9985 34.0928 29.8792 34.4612 28.4998L32.5289 27.9838C32.3272 28.7389 31.7829 29.301 31.1178 29.505L31.7042 31.4171ZM34.4706 28.4611L34.4756 28.4389L32.5244 28.0002L32.5194 28.0224L34.4706 28.4611ZM34.4847 28.3937C34.8136 26.5344 35 24.407 35 22.2393H33C33 24.2984 32.8224 26.3089 32.5153 28.0454L34.4847 28.3937ZM35 22.2393C35 22.1631 35 22.0783 34.9989 21.9925L32.9991 22.0181C33 22.089 33 22.161 33 22.2393H35ZM34.9989 22.0192C35 21.9388 35 21.8455 35 21.7618H33C33 21.8496 33 21.9278 32.9991 21.9914L34.9989 22.0192ZM35 21.7618C35 19.5898 34.813 17.4636 34.4542 15.4005L32.4838 15.7433C32.823 17.6932 33 19.7048 33 21.7618H35ZM20.6082 24.0764V19.936H18.6082V24.0764H20.6082ZM20.6082 19.936L23.9679 22.0093L25.0182 20.3073L21.6585 18.234L20.6082 19.936ZM23.9679 22.0093L20.6082 24.0764L21.6562 25.7798L25.0159 23.7127L23.9679 22.0093ZM23.9679 22.0093L23.9679 22.0093L25.0159 23.7127C26.2842 22.9324 26.2854 21.0893 25.0182 20.3073L23.9679 22.0093ZM20.6082 19.936V19.936L21.6585 18.234C20.326 17.4117 18.6082 18.3702 18.6082 19.936H20.6082ZM18.6082 24.0764C18.6082 25.641 20.3237 26.5997 21.6562 25.7798L20.6082 24.0764L20.6082 24.0764H18.6082Z" fill="white" mask="url(#path-1-inside-1_535_11721)"/>
</svg>
