<svg width="48" height="24" viewBox="0 0 48 24" fill="none" xmlns="http://www.w3.org/2000/svg">
<path d="M20.9981 10.6282C21.5704 11.5464 21.9032 12.6419 21.9032 13.8163C21.9032 15.4347 21.2762 16.9002 20.2639 17.9601C19.2513 19.0205 17.8472 19.6823 16.3017 19.6823H16.2904H15.6517H3.63149H0.0332209L4.17543 5.86226H7.7737L4.76056 15.9151H16.3031C16.8548 15.9151 17.3579 15.6742 17.7192 15.2958C18.0804 14.9178 18.3045 14.3942 18.3045 13.8163C18.3045 13.2359 18.0817 12.7121 17.7227 12.3337L17.7192 12.3372C17.3653 11.9668 16.8785 11.7343 16.3401 11.725H8.71297L9.8365 7.95733H17.7373C18.289 7.95733 18.7893 7.72267 19.1508 7.34446C19.5122 6.96603 19.7359 6.44267 19.7359 5.86504C19.7359 5.28441 19.5131 4.76012 19.1541 4.38215L19.1508 4.38562C18.7893 4.00742 18.287 3.76719 17.7356 3.76719H15.2274H1.6595L0 0H17.7169H17.7378C19.2832 0 20.6831 0.661102 21.6953 1.72128V1.7287C22.7078 2.78933 23.3346 4.25229 23.3346 5.86504C23.3346 7.48313 22.7078 8.94864 21.6953 10.0088C21.48 10.2342 21.2468 10.4415 20.9981 10.6282Z" fill="white"/>
<path d="M31.6142 14.1368C31.6142 14.1368 39.9389 22.1751 40.2332 22.5803C40.5276 22.9852 42.5373 24.6196 43.6769 23.7475C44.8164 22.8754 43.3353 21.8092 41.321 20.2792C39.3064 18.7496 32.1567 13.1928 32.1567 13.1928C32.1567 13.1928 31.9207 13.0179 32.1164 12.5449C32.3124 12.0715 33.6073 9.77483 33.6073 9.77483C33.6073 9.77483 33.886 9.28983 34.3937 9.18886C34.9011 9.08755 42.5818 7.66848 44.7393 6.85353C46.8967 6.03892 47.3833 4.88956 47.565 3.93976C47.7464 2.98995 47.3353 -0.0590276 39.3776 0.000870242C31.4196 0.0611104 26.2143 1.84983 27.0974 3.5855C27.5318 4.4405 28.2599 4.08317 28.8996 3.56531C30.0892 2.60249 29.8804 2.45258 31.5089 2.00796C32.955 1.61366 35.4346 1.24195 39.1771 1.51988C43.4708 1.83922 44.9328 2.65623 45.3335 3.30415C46.0887 4.52573 44.1363 5.01621 43.3791 5.26401C41.5205 5.87326 38.5199 6.63311 35.0269 7.42478C35.7904 5.31364 35.8245 5.25819 35.8245 5.25819C35.8245 5.25819 36.4858 4.20604 35.2674 3.02007C34.049 1.83443 33.8425 4.27039 33.6215 4.93611C33.4008 5.60184 32.0778 8.30237 32.0778 8.30237C32.0778 8.30237 30.3878 9.07762 29.5019 9.47569C28.6164 9.87409 27.9346 10.5313 28.4524 11.1491C28.7975 11.5605 29.1311 11.8764 29.3153 12.0407C29.5089 12.2142 29.7514 12.3761 29.7323 12.6732C29.7139 12.9573 29.389 13.3181 29.2208 13.6326C28.9772 14.0868 28.0027 15.6397 27.5224 16.7726C27.1808 17.5766 27.2121 19.2144 28.2195 19.5519C28.6953 19.7114 29.479 19.992 29.7042 18.5316C29.9294 17.0714 31.4349 13.8438 31.6142 14.1368ZM29.348 10.9102L29.9457 11.4301C29.9457 11.4301 30.3523 11.7162 30.5549 11.313C30.7572 10.9102 31.3035 9.75875 31.3035 9.75875L29.6951 10.3567C29.6951 10.3567 28.9563 10.6439 29.348 10.9102Z" fill="#C12125"/>
</svg>
